<?xml version="1.0" encoding="utf-8"?>
<!DOCTYPE svg PUBLIC "-//W3C//DTD SVG 1.1//EN" "http://www.w3.org/Graphics/SVG/1.1/DTD/svg11.dtd">
<svg class="marks" width="1356" height="647" viewBox="0 0 1356 647" version="1.1" xmlns="http://www.w3.org/2000/svg" xmlns:xlink="http://www.w3.org/1999/xlink"><rect width="1356" height="647" fill="white"></rect><g fill="none" stroke-miterlimit="10" transform="translate(54,10)"><g class="mark-group role-frame root" role="graphics-object" aria-roledescription="group mark container"><g transform="translate(0,0)"><path class="background" aria-hidden="true" d="M0.5,0.5h1200v600h-1200Z" stroke="#ddd"></path><g><g class="mark-group role-axis" aria-hidden="true"><g transform="translate(0.5,600.5)"><path class="background" aria-hidden="true" d="M0,0h0v0h0Z" pointer-events="none"></path><g><g class="mark-rule role-axis-grid" pointer-events="none"><line transform="translate(0,-600)" x2="0" y2="600" stroke="#ddd" stroke-width="1" opacity="1"></line><line transform="translate(33,-600)" x2="0" y2="600" stroke="#ddd" stroke-width="1" opacity="1"></line><line transform="translate(67,-600)" x2="0" y2="600" stroke="#ddd" stroke-width="1" opacity="1"></line><line transform="translate(100,-600)" x2="0" y2="600" stroke="#ddd" stroke-width="1" opacity="1"></line><line transform="translate(133,-600)" x2="0" y2="600" stroke="#ddd" stroke-width="1" opacity="1"></line><line transform="translate(167,-600)" x2="0" y2="600" stroke="#ddd" stroke-width="1" opacity="1"></line><line transform="translate(200,-600)" x2="0" y2="600" stroke="#ddd" stroke-width="1" opacity="1"></line><line transform="translate(233,-600)" x2="0" y2="600" stroke="#ddd" stroke-width="1" opacity="1"></line><line transform="translate(267,-600)" x2="0" y2="600" stroke="#ddd" stroke-width="1" opacity="1"></line><line transform="translate(300,-600)" x2="0" y2="600" stroke="#ddd" stroke-width="1" opacity="1"></line><line transform="translate(333,-600)" x2="0" y2="600" stroke="#ddd" stroke-width="1" opacity="1"></line><line transform="translate(367,-600)" x2="0" y2="600" stroke="#ddd" stroke-width="1" opacity="1"></line><line transform="translate(400,-600)" x2="0" y2="600" stroke="#ddd" stroke-width="1" opacity="1"></line><line transform="translate(433,-600)" x2="0" y2="600" stroke="#ddd" stroke-width="1" opacity="1"></line><line transform="translate(467,-600)" x2="0" y2="600" stroke="#ddd" stroke-width="1" opacity="1"></line><line transform="translate(500,-600)" x2="0" y2="600" stroke="#ddd" stroke-width="1" opacity="1"></line><line transform="translate(533,-600)" x2="0" y2="600" stroke="#ddd" stroke-width="1" opacity="1"></line><line transform="translate(567,-600)" x2="0" y2="600" stroke="#ddd" stroke-width="1" opacity="1"></line><line transform="translate(600,-600)" x2="0" y2="600" stroke="#ddd" stroke-width="1" opacity="1"></line><line transform="translate(633,-600)" x2="0" y2="600" stroke="#ddd" stroke-width="1" opacity="1"></line><line transform="translate(667,-600)" x2="0" y2="600" stroke="#ddd" stroke-width="1" opacity="1"></line><line transform="translate(700,-600)" x2="0" y2="600" stroke="#ddd" stroke-width="1" opacity="1"></line><line transform="translate(733,-600)" x2="0" y2="600" stroke="#ddd" stroke-width="1" opacity="1"></line><line transform="translate(767,-600)" x2="0" y2="600" stroke="#ddd" stroke-width="1" opacity="1"></line><line transform="translate(800,-600)" x2="0" y2="600" stroke="#ddd" stroke-width="1" opacity="1"></line><line transform="translate(833,-600)" x2="0" y2="600" stroke="#ddd" stroke-width="1" opacity="1"></line><line transform="translate(867,-600)" x2="0" y2="600" stroke="#ddd" stroke-width="1" opacity="1"></line><line transform="translate(900,-600)" x2="0" y2="600" stroke="#ddd" stroke-width="1" opacity="1"></line><line transform="translate(933,-600)" x2="0" y2="600" stroke="#ddd" stroke-width="1" opacity="1"></line><line transform="translate(967,-600)" x2="0" y2="600" stroke="#ddd" stroke-width="1" opacity="1"></line><line transform="translate(1000,-600)" x2="0" y2="600" stroke="#ddd" stroke-width="1" opacity="1"></line><line transform="translate(1033,-600)" x2="0" y2="600" stroke="#ddd" stroke-width="1" opacity="1"></line><line transform="translate(1067,-600)" x2="0" y2="600" stroke="#ddd" stroke-width="1" opacity="1"></line><line transform="translate(1100,-600)" x2="0" y2="600" stroke="#ddd" stroke-width="1" opacity="1"></line><line transform="translate(1133,-600)" x2="0" y2="600" stroke="#ddd" stroke-width="1" opacity="1"></line><line transform="translate(1167,-600)" x2="0" y2="600" stroke="#ddd" stroke-width="1" opacity="1"></line><line transform="translate(1200,-600)" x2="0" y2="600" stroke="#ddd" stroke-width="1" opacity="1"></line></g></g><path class="foreground" aria-hidden="true" d="" pointer-events="none" display="none"></path></g></g><g class="mark-group role-axis" aria-hidden="true"><g transform="translate(0.5,0.5)"><path class="background" aria-hidden="true" d="M0,0h0v0h0Z" pointer-events="none"></path><g><g class="mark-rule role-axis-grid" pointer-events="none"><line transform="translate(0,600)" x2="1200" y2="0" stroke="#ddd" stroke-width="1" opacity="1"></line><line transform="translate(0,557)" x2="1200" y2="0" stroke="#ddd" stroke-width="1" opacity="1"></line><line transform="translate(0,514)" x2="1200" y2="0" stroke="#ddd" stroke-width="1" opacity="1"></line><line transform="translate(0,471)" x2="1200" y2="0" stroke="#ddd" stroke-width="1" opacity="1"></line><line transform="translate(0,429)" x2="1200" y2="0" stroke="#ddd" stroke-width="1" opacity="1"></line><line transform="translate(0,386)" x2="1200" y2="0" stroke="#ddd" stroke-width="1" opacity="1"></line><line transform="translate(0,343)" x2="1200" y2="0" stroke="#ddd" stroke-width="1" opacity="1"></line><line transform="translate(0,300)" x2="1200" y2="0" stroke="#ddd" stroke-width="1" opacity="1"></line><line transform="translate(0,257)" x2="1200" y2="0" stroke="#ddd" stroke-width="1" opacity="1"></line><line transform="translate(0,214)" x2="1200" y2="0" stroke="#ddd" stroke-width="1" opacity="1"></line><line transform="translate(0,171)" x2="1200" y2="0" stroke="#ddd" stroke-width="1" opacity="1"></line><line transform="translate(0,129)" x2="1200" y2="0" stroke="#ddd" stroke-width="1" opacity="1"></line><line transform="translate(0,86)" x2="1200" y2="0" stroke="#ddd" stroke-width="1" opacity="1"></line><line transform="translate(0,43)" x2="1200" y2="0" stroke="#ddd" stroke-width="1" opacity="1"></line><line transform="translate(0,0)" x2="1200" y2="0" stroke="#ddd" stroke-width="1" opacity="1"></line></g></g><path class="foreground" aria-hidden="true" d="" pointer-events="none" display="none"></path></g></g><g class="mark-group role-axis" role="graphics-symbol" aria-roledescription="axis" aria-label="X-axis titled 'Size' for a linear scale with values from 20 to 200"><g transform="translate(0.5,600.5)"><path class="background" aria-hidden="true" d="M0,0h0v0h0Z" pointer-events="none"></path><g><g class="mark-rule role-axis-tick" pointer-events="none"><line transform="translate(0,0)" x2="0" y2="5" stroke="#888" stroke-width="1" opacity="1"></line><line transform="translate(33,0)" x2="0" y2="5" stroke="#888" stroke-width="1" opacity="1"></line><line transform="translate(67,0)" x2="0" y2="5" stroke="#888" stroke-width="1" opacity="1"></line><line transform="translate(100,0)" x2="0" y2="5" stroke="#888" stroke-width="1" opacity="1"></line><line transform="translate(133,0)" x2="0" y2="5" stroke="#888" stroke-width="1" opacity="1"></line><line transform="translate(167,0)" x2="0" y2="5" stroke="#888" stroke-width="1" opacity="1"></line><line transform="translate(200,0)" x2="0" y2="5" stroke="#888" stroke-width="1" opacity="1"></line><line transform="translate(233,0)" x2="0" y2="5" stroke="#888" stroke-width="1" opacity="1"></line><line transform="translate(267,0)" x2="0" y2="5" stroke="#888" stroke-width="1" opacity="1"></line><line transform="translate(300,0)" x2="0" y2="5" stroke="#888" stroke-width="1" opacity="1"></line><line transform="translate(333,0)" x2="0" y2="5" stroke="#888" stroke-width="1" opacity="1"></line><line transform="translate(367,0)" x2="0" y2="5" stroke="#888" stroke-width="1" opacity="1"></line><line transform="translate(400,0)" x2="0" y2="5" stroke="#888" stroke-width="1" opacity="1"></line><line transform="translate(433,0)" x2="0" y2="5" stroke="#888" stroke-width="1" opacity="1"></line><line transform="translate(467,0)" x2="0" y2="5" stroke="#888" stroke-width="1" opacity="1"></line><line transform="translate(500,0)" x2="0" y2="5" stroke="#888" stroke-width="1" opacity="1"></line><line transform="translate(533,0)" x2="0" y2="5" stroke="#888" stroke-width="1" opacity="1"></line><line transform="translate(567,0)" x2="0" y2="5" stroke="#888" stroke-width="1" opacity="1"></line><line transform="translate(600,0)" x2="0" y2="5" stroke="#888" stroke-width="1" opacity="1"></line><line transform="translate(633,0)" x2="0" y2="5" stroke="#888" stroke-width="1" opacity="1"></line><line transform="translate(667,0)" x2="0" y2="5" stroke="#888" stroke-width="1" opacity="1"></line><line transform="translate(700,0)" x2="0" y2="5" stroke="#888" stroke-width="1" opacity="1"></line><line transform="translate(733,0)" x2="0" y2="5" stroke="#888" stroke-width="1" opacity="1"></line><line transform="translate(767,0)" x2="0" y2="5" stroke="#888" stroke-width="1" opacity="1"></line><line transform="translate(800,0)" x2="0" y2="5" stroke="#888" stroke-width="1" opacity="1"></line><line transform="translate(833,0)" x2="0" y2="5" stroke="#888" stroke-width="1" opacity="1"></line><line transform="translate(867,0)" x2="0" y2="5" stroke="#888" stroke-width="1" opacity="1"></line><line transform="translate(900,0)" x2="0" y2="5" stroke="#888" stroke-width="1" opacity="1"></line><line transform="translate(933,0)" x2="0" y2="5" stroke="#888" stroke-width="1" opacity="1"></line><line transform="translate(967,0)" x2="0" y2="5" stroke="#888" stroke-width="1" opacity="1"></line><line transform="translate(1000,0)" x2="0" y2="5" stroke="#888" stroke-width="1" opacity="1"></line><line transform="translate(1033,0)" x2="0" y2="5" stroke="#888" stroke-width="1" opacity="1"></line><line transform="translate(1067,0)" x2="0" y2="5" stroke="#888" stroke-width="1" opacity="1"></line><line transform="translate(1100,0)" x2="0" y2="5" stroke="#888" stroke-width="1" opacity="1"></line><line transform="translate(1133,0)" x2="0" y2="5" stroke="#888" stroke-width="1" opacity="1"></line><line transform="translate(1167,0)" x2="0" y2="5" stroke="#888" stroke-width="1" opacity="1"></line><line transform="translate(1200,0)" x2="0" y2="5" stroke="#888" stroke-width="1" opacity="1"></line></g><g class="mark-text role-axis-label" pointer-events="none"><text text-anchor="start" transform="translate(0,15)" font-family="sans-serif" font-size="10px" fill="#000" opacity="1">20</text><text text-anchor="middle" transform="translate(33.33333333333333,15)" font-family="sans-serif" font-size="10px" fill="#000" opacity="1">25</text><text text-anchor="middle" transform="translate(66.66666666666666,15)" font-family="sans-serif" font-size="10px" fill="#000" opacity="1">30</text><text text-anchor="middle" transform="translate(100,15)" font-family="sans-serif" font-size="10px" fill="#000" opacity="1">35</text><text text-anchor="middle" transform="translate(133.33333333333331,15)" font-family="sans-serif" font-size="10px" fill="#000" opacity="1">40</text><text text-anchor="middle" transform="translate(166.66666666666669,15)" font-family="sans-serif" font-size="10px" fill="#000" opacity="1">45</text><text text-anchor="middle" transform="translate(200,15)" font-family="sans-serif" font-size="10px" fill="#000" opacity="1">50</text><text text-anchor="middle" transform="translate(233.33333333333334,15)" font-family="sans-serif" font-size="10px" fill="#000" opacity="1">55</text><text text-anchor="middle" transform="translate(266.66666666666663,15)" font-family="sans-serif" font-size="10px" fill="#000" opacity="1">60</text><text text-anchor="middle" transform="translate(300,15)" font-family="sans-serif" font-size="10px" fill="#000" opacity="1">65</text><text text-anchor="middle" transform="translate(333.33333333333337,15)" font-family="sans-serif" font-size="10px" fill="#000" opacity="1">70</text><text text-anchor="middle" transform="translate(366.6666666666667,15)" font-family="sans-serif" font-size="10px" fill="#000" opacity="1">75</text><text text-anchor="middle" transform="translate(400,15)" font-family="sans-serif" font-size="10px" fill="#000" opacity="1">80</text><text text-anchor="middle" transform="translate(433.3333333333333,15)" font-family="sans-serif" font-size="10px" fill="#000" opacity="1">85</text><text text-anchor="middle" transform="translate(466.6666666666667,15)" font-family="sans-serif" font-size="10px" fill="#000" opacity="1">90</text><text text-anchor="middle" transform="translate(500,15)" font-family="sans-serif" font-size="10px" fill="#000" opacity="1">95</text><text text-anchor="middle" transform="translate(533.3333333333333,15)" font-family="sans-serif" font-size="10px" fill="#000" opacity="1">100</text><text text-anchor="middle" transform="translate(566.6666666666666,15)" font-family="sans-serif" font-size="10px" fill="#000" opacity="1">105</text><text text-anchor="middle" transform="translate(600,15)" font-family="sans-serif" font-size="10px" fill="#000" opacity="1">110</text><text text-anchor="middle" transform="translate(633.3333333333334,15)" font-family="sans-serif" font-size="10px" fill="#000" opacity="1">115</text><text text-anchor="middle" transform="translate(666.6666666666667,15)" font-family="sans-serif" font-size="10px" fill="#000" opacity="1">120</text><text text-anchor="middle" transform="translate(700,15)" font-family="sans-serif" font-size="10px" fill="#000" opacity="1">125</text><text text-anchor="middle" transform="translate(733.3333333333334,15)" font-family="sans-serif" font-size="10px" fill="#000" opacity="1">130</text><text text-anchor="middle" transform="translate(766.6666666666666,15)" font-family="sans-serif" font-size="10px" fill="#000" opacity="1">135</text><text text-anchor="middle" transform="translate(800,15)" font-family="sans-serif" font-size="10px" fill="#000" opacity="1">140</text><text text-anchor="middle" transform="translate(833.3333333333333,15)" font-family="sans-serif" font-size="10px" fill="#000" opacity="1">145</text><text text-anchor="middle" transform="translate(866.6666666666666,15)" font-family="sans-serif" font-size="10px" fill="#000" opacity="1">150</text><text text-anchor="middle" transform="translate(900,15)" font-family="sans-serif" font-size="10px" fill="#000" opacity="1">155</text><text text-anchor="middle" transform="translate(933.3333333333334,15)" font-family="sans-serif" font-size="10px" fill="#000" opacity="1">160</text><text text-anchor="middle" transform="translate(966.6666666666667,15)" font-family="sans-serif" font-size="10px" fill="#000" opacity="1">165</text><text text-anchor="middle" transform="translate(1000,15)" font-family="sans-serif" font-size="10px" fill="#000" opacity="1">170</text><text text-anchor="middle" transform="translate(1033.3333333333335,15)" font-family="sans-serif" font-size="10px" fill="#000" opacity="1">175</text><text text-anchor="middle" transform="translate(1066.6666666666665,15)" font-family="sans-serif" font-size="10px" fill="#000" opacity="1">180</text><text text-anchor="middle" transform="translate(1100,15)" font-family="sans-serif" font-size="10px" fill="#000" opacity="1">185</text><text text-anchor="middle" transform="translate(1133.3333333333333,15)" font-family="sans-serif" font-size="10px" fill="#000" opacity="1">190</text><text text-anchor="middle" transform="translate(1166.6666666666667,15)" font-family="sans-serif" font-size="10px" fill="#000" opacity="1">195</text><text text-anchor="end" transform="translate(1200,15)" font-family="sans-serif" font-size="10px" fill="#000" opacity="1">200</text></g><g class="mark-rule role-axis-domain" pointer-events="none"><line transform="translate(0,0)" x2="1200" y2="0" stroke="#888" stroke-width="1" opacity="1"></line></g><g class="mark-text role-axis-title" pointer-events="none"><text text-anchor="middle" transform="translate(600,30)" font-family="sans-serif" font-size="11px" font-weight="bold" fill="#000" opacity="1">Size</text></g></g><path class="foreground" aria-hidden="true" d="" pointer-events="none" display="none"></path></g></g><g class="mark-group role-axis" role="graphics-symbol" aria-roledescription="axis" aria-label="Y-axis titled 'GFLOPS' for a linear scale with values from 0 to 1,400"><g transform="translate(0.5,0.5)"><path class="background" aria-hidden="true" d="M0,0h0v0h0Z" pointer-events="none"></path><g><g class="mark-rule role-axis-tick" pointer-events="none"><line transform="translate(0,600)" x2="-5" y2="0" stroke="#888" stroke-width="1" opacity="1"></line><line transform="translate(0,557)" x2="-5" y2="0" stroke="#888" stroke-width="1" opacity="1"></line><line transform="translate(0,514)" x2="-5" y2="0" stroke="#888" stroke-width="1" opacity="1"></line><line transform="translate(0,471)" x2="-5" y2="0" stroke="#888" stroke-width="1" opacity="1"></line><line transform="translate(0,429)" x2="-5" y2="0" stroke="#888" stroke-width="1" opacity="1"></line><line transform="translate(0,386)" x2="-5" y2="0" stroke="#888" stroke-width="1" opacity="1"></line><line transform="translate(0,343)" x2="-5" y2="0" stroke="#888" stroke-width="1" opacity="1"></line><line transform="translate(0,300)" x2="-5" y2="0" stroke="#888" stroke-width="1" opacity="1"></line><line transform="translate(0,257)" x2="-5" y2="0" stroke="#888" stroke-width="1" opacity="1"></line><line transform="translate(0,214)" x2="-5" y2="0" stroke="#888" stroke-width="1" opacity="1"></line><line transform="translate(0,171)" x2="-5" y2="0" stroke="#888" stroke-width="1" opacity="1"></line><line transform="translate(0,129)" x2="-5" y2="0" stroke="#888" stroke-width="1" opacity="1"></line><line transform="translate(0,86)" x2="-5" y2="0" stroke="#888" stroke-width="1" opacity="1"></line><line transform="translate(0,43)" x2="-5" y2="0" stroke="#888" stroke-width="1" opacity="1"></line><line transform="translate(0,0)" x2="-5" y2="0" stroke="#888" stroke-width="1" opacity="1"></line></g><g class="mark-text role-axis-label" pointer-events="none"><text text-anchor="end" transform="translate(-7,603)" font-family="sans-serif" font-size="10px" fill="#000" opacity="1">0</text><text text-anchor="end" transform="translate(-7,560.1428571428571)" font-family="sans-serif" font-size="10px" fill="#000" opacity="1">100</text><text text-anchor="end" transform="translate(-7,517.2857142857143)" font-family="sans-serif" font-size="10px" fill="#000" opacity="1">200</text><text text-anchor="end" transform="translate(-7,474.42857142857144)" font-family="sans-serif" font-size="10px" fill="#000" opacity="1">300</text><text text-anchor="end" transform="translate(-7,431.57142857142856)" font-family="sans-serif" font-size="10px" fill="#000" opacity="1">400</text><text text-anchor="end" transform="translate(-7,388.71428571428567)" font-family="sans-serif" font-size="10px" fill="#000" opacity="1">500</text><text text-anchor="end" transform="translate(-7,345.85714285714283)" font-family="sans-serif" font-size="10px" fill="#000" opacity="1">600</text><text text-anchor="end" transform="translate(-7,303)" font-family="sans-serif" font-size="10px" fill="#000" opacity="1">700</text><text text-anchor="end" transform="translate(-7,260.14285714285717)" font-family="sans-serif" font-size="10px" fill="#000" opacity="1">800</text><text text-anchor="end" transform="translate(-7,217.28571428571425)" font-family="sans-serif" font-size="10px" fill="#000" opacity="1">900</text><text text-anchor="end" transform="translate(-7,174.42857142857142)" font-family="sans-serif" font-size="10px" fill="#000" opacity="1">1,000</text><text text-anchor="end" transform="translate(-7,131.57142857142858)" font-family="sans-serif" font-size="10px" fill="#000" opacity="1">1,100</text><text text-anchor="end" transform="translate(-7,88.71428571428574)" font-family="sans-serif" font-size="10px" fill="#000" opacity="1">1,200</text><text text-anchor="end" transform="translate(-7,45.85714285714284)" font-family="sans-serif" font-size="10px" fill="#000" opacity="1">1,300</text><text text-anchor="end" transform="translate(-7,3)" font-family="sans-serif" font-size="10px" fill="#000" opacity="1">1,400</text></g><g class="mark-rule role-axis-domain" pointer-events="none"><line transform="translate(0,600)" x2="0" y2="-600" stroke="#888" stroke-width="1" opacity="1"></line></g><g class="mark-text role-axis-title" pointer-events="none"><text text-anchor="middle" transform="translate(-38,300) rotate(-90) translate(0,-2)" font-family="sans-serif" font-size="11px" font-weight="bold" fill="#000" opacity="1">GFLOPS</text></g></g><path class="foreground" aria-hidden="true" d="" pointer-events="none" display="none"></path></g></g><g class="mark-group role-scope pathgroup" role="graphics-object" aria-roledescription="group mark container"><g transform="translate(0,0)"><path class="background" aria-hidden="true" d="M0,0h1200v600h-1200Z"></path><g><g class="mark-line role-mark marks" role="graphics-object" aria-roledescription="line mark container"><path aria-label="Library: MKL; Size: 24; GFLOPS: 54.164990103" role="graphics-symbol" aria-roledescription="line mark" d="M26.666666666666668,576.7864328129871L33.33333333333333,582.8320934639733L40,581.6169201238464L46.666666666666664,580.203314622945L53.333333333333336,579.2487173339726L60,577.9940292854636L66.66666666666666,577.2708140415859L73.33333333333333,575.5176003287221L80,571.6130522668207L86.66666666666666,576.0006678167956L93.33333333333333,575.2467723312691L100,574.38667410092L106.66666666666667,572.9937485529058L113.33333333333333,572.5938283405775L120,571.418848531148L126.66666666666667,570.3545815737524L133.33333333333331,566.1124642592397L140,571.5422423746569L146.66666666666666,570.627197039778L153.33333333333331,570.7390050910875L160,569.640392040392L166.66666666666669,569.5567846470796L173.33333333333331,567.7928405985367L180,566.9941364166206L186.66666666666666,561.3894693286438L193.33333333333334,570.6256918147393L200,569.8390915534376L206.66666666666666,574.1143526197678L213.33333333333334,572.7036593651924L219.99999999999997,571.2203750241639L226.66666666666666,569.9381443298969L233.33333333333334,562.9481849899785L240,548.4338628869953L246.66666666666666,561.063914780293L253.33333333333334,558.2529063547536L260,557.4902028425555L266.66666666666663,551.3294276701217L273.3333333333333,554.0074296714059L280,548.0446172292264L286.6666666666667,548.1050847457627L293.3333333333333,521.0057142857142L300,540.3680515344528L306.66666666666663,537.1020601640838L313.33333333333337,534.8927373092326L320,525.1170373751556L326.66666666666663,529.850736707239L333.33333333333337,524.1737592572124L340,522.5328812091916L346.66666666666663,494.46147139735035L353.33333333333337,522.0536984471531L360,518.6406103600589L366.6666666666667,516.1449016100179L373.3333333333333,504.6015429751168L380,511.2839098328799L386.6666666666667,503.7257142857143L393.3333333333333,502.48437499999994L400,470.72951349986585L406.6666666666667,512.9494810696199L413.3333333333333,504.9888806452385L420,506.5312972523805L426.6666666666667,491.596713965646L433.3333333333333,498.23896823606844L439.99999999999994,492.51322108050005L446.6666666666667,492.8057842831368L453.3333333333333,445.0253421834359L460.00000000000006,488.0690668042711L466.6666666666667,482.76601447333155L473.3333333333333,486.6691230655859L480,469.4565588924229L486.6666666666667,476.741064245489L493.3333333333333,469.0303585116401L500,472.5471978593727L506.6666666666667,427.43031760996064L513.3333333333333,467.7176869597986L520,453.0089280291527L526.6666666666666,454.8745625143336L533.3333333333333,440.9261632274314L540,451.97037398887943L546.6666666666666,445.12057600155674L553.3333333333334,444.32166364318476L560,368.594116436947L566.6666666666666,441.1281542205713L573.3333333333334,430.60583792804283L580,436.8190375547248L586.6666666666666,406.49585253456223L593.3333333333334,428.6840051327503L600,418.9000662173562L606.6666666666666,418.1478789275631L613.3333333333333,338.0983036102653L620.0000000000001,412.6618714376599L626.6666666666667,402.27098014093536L633.3333333333334,405.48257651253135L640,377.37847230475927L646.6666666666666,406.8911038321645L653.3333333333333,383.28309386046675L660,391.94497659344614L666.6666666666667,294.1683136190673L673.3333333333334,384.9329569941425L680,366.0630304201491L686.6666666666666,381.0003971931683L693.3333333333333,355.0402244087323L700,376.178910442915L706.6666666666667,339.8462997382695L713.3333333333334,361.3001349815978L720,305.3954934537077L726.6666666666666,328.0893833519812L733.3333333333334,331.3633584674954L740,338.9949351045148L746.6666666666666,308.54507054152225L753.3333333333334,324.4967552428445L760,314.61931613202927L766.6666666666666,317.56214455514686L773.3333333333334,212.3391310676079L780,307.3504588026082L786.6666666666666,303.847695842437L793.3333333333333,300.0183559110625L800,281.8504616008927L806.6666666666667,300.0922583137686L813.3333333333334,287.91367533788696L820,280.86794717887153L826.6666666666666,171.05737461573077L833.3333333333333,328.70565377313716L840,323.19755703464324L846.6666666666667,338.0223227172135L853.3333333333334,319.1835414711615L860,334.83729008296484L866.6666666666666,321.3852313534486L873.3333333333333,322.484403127435L879.9999999999999,230.75059582223466L886.6666666666667,313.22530192833784L893.3333333333334,295.1789678675754L900,308.36977093258497L906.6666666666666,280.7230320699708L913.3333333333333,305.36053092404126L920.0000000000001,288.6315290898087L926.6666666666667,292.3989694797658L933.3333333333334,191.77661995382243L940,291.81545619023L946.6666666666666,288.9581036921425L953.3333333333333,306.6022085723319L960,262.2166405023548L966.6666666666667,274.7704318656257L973.3333333333334,256.51991740191477L980,275.96500463821894L986.6666666666666,161.0480613457176L993.3333333333333,247.98222946117102L1000,236.84521756270638L1006.6666666666667,244.14686625231295L1013.3333333333334,198.82939135919273L1020,239.00739036463779L1026.6666666666665,208.13597649421644L1033.3333333333335,232.55879059350494L1040,111.75939221159155L1046.6666666666667,215.38623910480186L1053.3333333333333,198.23195288753797L1060,240.24845538654546L1066.6666666666665,167.64771295129364L1073.3333333333335,209.71856385954518L1080,192.25566164286275L1086.6666666666667,197.2560870089045L1093.3333333333333,82.8498927706676L1100,196.13728658601414L1106.6666666666667,154.87120836551864L1113.3333333333335,203.32405216863816L1120,146.79452989121162L1126.6666666666667,173.4648780128253L1133.3333333333333,153.29056628349986L1140,160.0397158642463L1146.6666666666667,41.417812093072136L1153.3333333333333,159.97937324029863L1160,140.4032354514839L1166.6666666666667,204.652454412967L1173.3333333333333,125.37961464921317L1180,165.957288571807L1186.6666666666667,145.93060416686984L1193.3333333333333,162.7678721692574L1200,37.47802648540952" stroke="#e45756" stroke-width="2"></path></g></g><path class="foreground" aria-hidden="true" d="" display="none"></path></g><g transform="translate(0,0)"><path class="background" aria-hidden="true" d="M0,0h1200v600h-1200Z"></path><g><g class="mark-line role-mark marks" role="graphics-object" aria-roledescription="line mark container"><path aria-label="Library: OpenBLAS; Size: 24; GFLOPS: 31.5268952501" role="graphics-symbol" aria-roledescription="line mark" d="M26.666666666666668,586.488473464252L33.33333333333333,588.4234962893446L40,588.0111866487802L46.666666666666664,589.3503706241997L53.333333333333336,586.9514563106796L60,588.2840009287355L66.66666666666666,587.2364564621348L73.33333333333333,588.4124295006159L80,583.0853013292037L86.66666666666666,585.4228475279059L93.33333333333333,584.4758442622351L100,586.2867448899208L106.66666666666667,583.6638655462185L113.33333333333333,585.7527028531582L120,585.328505698466L126.66666666666667,586.9620213749965L133.33333333333331,581.4873341439767L140,584.0907176039473L146.66666666666666,582.9026048327388L153.33333333333331,584.8956083969224L160,583.0350184220135L166.66666666666669,584.8678444577703L173.33333333333331,583.5409632781896L180,585.5124633124177L186.66666666666666,579.8758984623782L193.33333333333334,581.7083257754399L200,582.0204966338374L206.66666666666666,583.2586051677282L213.33333333333334,581.0274631860174L219.99999999999997,582.5754274400414L226.66666666666666,582.1899326550136L233.33333333333334,583.3532518065592L240,578.8688144872605L246.66666666666666,581.3689134808853L253.33333333333334,580.3548858049035L260,583.0225534904868L266.66666666666663,580.5058061410722L273.3333333333333,581.5953890022569L280,582.1135502270254L286.6666666666667,583.6766184310738L293.3333333333333,578.7240926860281L300,576.7191319213869L306.66666666666663,575.2758961716522L313.33333333333337,574.8392682858816L320,574.5406061914658L326.66666666666663,574.223806036512L333.33333333333337,573.919985806795L340,572.95178476963L346.66666666666663,570.7401813478273L353.33333333333337,571.2672862682341L360,570.9221551157088L366.6666666666667,570.4738186611298L373.3333333333333,569.9516736258471L380,569.3831468586183L386.6666666666667,567.0293542074364L393.3333333333333,566.342397487826L400,561.0769718086791L406.6666666666667,563.2466631319302L413.3333333333333,562.4203925845147L420,561.7017158039273L426.6666666666667,560.5901791947871L433.3333333333333,560.0126969657507L439.99999999999994,559.0236108874216L446.6666666666667,558.5160118435144L453.3333333333333,556.5807732741503L460.00000000000006,557.302208673181L466.6666666666667,556.6763403690534L473.3333333333333,556.9646212272636L480,555.577580223437L486.6666666666667,555.3668118636074L493.3333333333333,552.7773187279687L500,550.0752135093168L506.6666666666667,534.5011968511709L513.3333333333333,542.8024316109422L520,540.0641901931649L526.6666666666666,540.6617539138944L533.3333333333333,541.3598647367546L540,538.9059050254484L546.6666666666666,540.0825467925132L553.3333333333334,539.0139899168419L560,535.9057938671048L566.6666666666666,538.4994421718111L573.3333333333334,538.9723303955728L580,539.4058019999505L586.6666666666666,537.8094031299883L593.3333333333334,535.9736484315131L600,532.5614977326273L606.6666666666666,531.7861423999335L613.3333333333333,523.12646026173L620.0000000000001,526.6839257132694L626.6666666666667,529.2655903112094L633.3333333333334,528.0133004110031L640,527.0774046360245L646.6666666666666,526.943156678349L653.3333333333333,525.2289279077704L660,525.0390783123152L666.6666666666667,522.6355258739693L673.3333333333334,524.030375368078L680,527.647771343569L686.6666666666666,524.9327533347677L693.3333333333333,523.6938346707221L700,523.1708516357438L706.6666666666667,519.5699408950182L713.3333333333334,515.9522806537647L720,491.3664798970897L726.6666666666666,505.5480138156592L733.3333333333334,505.0548120831473L740,507.27864773086594L746.6666666666666,505.1116122999065L753.3333333333334,504.6730641958968L760,503.28840060291407L766.6666666666666,503.52731669062865L773.3333333333334,501.68239202657804L780,505.5124386031528L786.6666666666666,505.1403064447239L793.3333333333333,506.99530754890134L800,504.7580481878923L806.6666666666667,502.207535321821L813.3333333333334,499.9165297633612L820,495.61622760048544L826.6666666666666,489.13082706766914L833.3333333333333,514.6127130393379L840,514.2240862131533L846.6666666666667,511.5593451568895L853.3333333333334,511.46192782491534L860,509.8618750908298L866.6666666666666,509.5982142857143L873.3333333333333,508.56954310676775L879.9999999999999,506.55570288836367L886.6666666666667,505.58730646890325L893.3333333333334,504.5866504114599L900,504.85877799210533L906.6666666666666,503.70292207792204L913.3333333333333,502.03918540925713L920.0000000000001,501.57960882818963L926.6666666666667,500.1553511401083L933.3333333333334,496.89112649465073L940,496.9996832618273L946.6666666666666,493.44852907392016L953.3333333333333,504.27137588924217L960,500.80781973824264L966.6666666666667,502.8218450067423L973.3333333333334,500.30702171788903L980,500.4957342258937L986.6666666666666,498.4393023139587L993.3333333333333,498.87899356839085L1000,495.3857291910653L1006.6666666666667,496.0440685248583L1013.3333333333334,492.00131590583493L1020,492.6401097571933L1026.6666666666665,492.41758451212377L1033.3333333333335,490.2041157771457L1040,487.2302993111913L1046.6666666666667,487.1543956043956L1053.3333333333333,484.91124103380366L1060,477.96328830665897L1066.6666666666665,459.32185673278707L1073.3333333333335,473.541124033212L1080,475.1487387648594L1086.6666666666667,476.5367979612462L1093.3333333333333,475.290198590647L1100,472.7733515517467L1106.6666666666667,471.2964448222411L1113.3333333333335,471.6943769518795L1120,467.5080107274957L1126.6666666666667,467.02509306493863L1133.3333333333333,461.8719813654381L1140,463.3053909836387L1146.6666666666667,462.43172011661807L1153.3333333333333,462.73003214206153L1160,461.87448094512916L1166.6666666666667,463.32615494264456L1173.3333333333333,458.89131337866496L1180,455.1944126142336L1186.6666666666667,455.0787641928327L1193.3333333333333,466.0081103138709L1200,463.92667915895345" stroke="#72b7b2" stroke-width="2"></path></g></g><path class="foreground" aria-hidden="true" d="" display="none"></path></g><g transform="translate(0,0)"><path class="background" aria-hidden="true" d="M0,0h1200v600h-1200Z"></path><g><g class="mark-line role-mark marks" role="graphics-object" aria-roledescription="line mark container"><path aria-label="Library: BLIS; Size: 24; GFLOPS: 0.638846527104" role="graphics-symbol" aria-roledescription="line mark" d="M26.666666666666668,599.7262086312412L33.33333333333333,599.6861809137743L40,599.648528034502L46.666666666666664,599.6044373436229L53.333333333333336,599.5567177892431L60,599.5215294421538L66.66666666666666,599.4724793794794L73.33333333333333,599.4096330229778L80,599.3560128137099L86.66666666666666,599.3084006633031L93.33333333333333,599.2488485427616L100,599.1813139076388L106.66666666666667,599.0983505705847L113.33333333333333,599.0254353054353L120,598.9405040805293L126.66666666666667,598.8690335844727L133.33333333333331,598.7605986566697L140,598.689199812347L146.66666666666666,598.5907416448449L153.33333333333331,598.4902444196181L160,598.384984358707L166.66666666666669,598.2886252660574L173.33333333333331,598.1275897225446L180,598.0404469358095L186.66666666666666,597.89978635522L193.33333333333334,598.3040648492289L200,598.202089890711L206.66666666666666,598.3937607591386L213.33333333333334,597.5565415850875L219.99999999999997,597.2756435281201L226.66666666666666,597.4643682418016L233.33333333333334,597.3475840629193L240,597.279991326503L246.66666666666666,596.9847113224135L253.33333333333334,596.9045891548298L260,596.8853103760304L266.66666666666663,596.3254369923021L273.3333333333333,596.3065695410216L280,595.8593898399315L286.6666666666667,596.3687099725526L293.3333333333333,596.0197183954004L300,595.4379460997934L306.66666666666663,596.2551646882082L313.33333333333337,595.9412935569555L320,594.9387203219316L326.66666666666663,595.7928679218703L333.33333333333337,596.1481520300811L340,594.734731706121L346.66666666666663,594.1226649310568L353.33333333333337,595.8931021559392L360,593.3426320674897L366.6666666666667,593.7311314796882L373.3333333333333,593.5564417087861L380,594.109200939363L386.6666666666667,593.2720424568649L393.3333333333333,592.4405255948974L400,592.2170510426669L406.6666666666667,593.7549408817694L413.3333333333333,594.3177855184781L420,591.9938718168919L426.6666666666667,594.0142799915169L433.3333333333333,593.2486904135893L439.99999999999994,593.118362401004L446.6666666666667,592.9188530422268L453.3333333333333,592.5375110874255L460.00000000000006,591.7866094487272L466.6666666666667,591.079840929948L473.3333333333333,591.5486732611085L480,591.9705641245972L486.6666666666667,589.615326518009L493.3333333333333,590.2157807834044L500,587.4302085496818L506.6666666666667,587.9685047936357L513.3333333333333,589.4173433773824L520,585.6358100528818L526.6666666666666,585.3684800474499L533.3333333333333,589.8148336762339L540,589.2916800914618L546.6666666666666,587.9118799550439L553.3333333333334,586.0057203475752L560,585.4159044204877L566.6666666666666,589.9041543298433L573.3333333333334,587.7788316336914L580,586.7489859273762L586.6666666666666,582.9882443500632L593.3333333333334,583.6948080563052L600,582.3971680292367L606.6666666666666,584.4841282446905L613.3333333333333,585.7026369216522L620.0000000000001,579.1252070629254L626.6666666666667,582.1259890334165L633.3333333333334,581.3054674631856L640,582.568845178846L646.6666666666666,584.451290133115L653.3333333333333,581.4646861956154L660,576.2293754628487L666.6666666666667,580.6755361383131L673.3333333333334,578.8509469889154L680,583.7423629266196L686.6666666666666,580.6731105775805L693.3333333333333,582.0968948998484L700,582.5513873275612L706.6666666666667,583.2801099961969L713.3333333333334,577.0860715031471L720,579.8939772589274L726.6666666666666,581.6623399920556L733.3333333333334,581.7127985439048L740,572.7167352024418L746.6666666666666,570.6645465483595L753.3333333333334,573.2155722027414L760,571.9683191232808L766.6666666666666,567.2298092248678L773.3333333333334,568.239325592064L780,570.1587254306527L786.6666666666666,571.6610708040465L793.3333333333333,571.1873339317452L800,578.4498950898379L806.6666666666667,573.4999354015346L813.3333333333334,573.6207438208148L820,565.0462550502435L826.6666666666666,577.3306508552297L833.3333333333333,561.4614387898068L840,560.4479991866268L846.6666666666667,562.6818256578947L853.3333333333334,571.4054143849462L860,567.5083383126929L866.6666666666666,558.0161218092253L873.3333333333333,563.4438997975565L879.9999999999999,565.2262381981084L886.6666666666667,562.2298116013097L893.3333333333334,553.4399428877388L900,562.2658636803502L906.6666666666666,565.3102621700032L913.3333333333333,570.3503808459697L920.0000000000001,551.6262862048525L926.6666666666667,551.7418462819046L933.3333333333334,547.9186313382513L940,551.1258641890969L946.6666666666666,557.4900337457818L953.3333333333333,564.0435802985058L960,562.9121545304473L966.6666666666667,554.3667959616619L973.3333333333334,558.3542211344266L980,543.2487327582005L986.6666666666666,544.6181015452538L993.3333333333333,559.5381477233195L1000,554.3774608127181L1006.6666666666667,542.0621415246284L1013.3333333333334,539.1740205405082L1020,537.8024617700879L1026.6666666666665,552.9096231803737L1033.3333333333335,541.4555348813499L1040,540.9712639944563L1046.6666666666667,539.2479663440206L1053.3333333333333,559.8565591857072L1060,531.7941498259773L1066.6666666666665,536.7281327638768L1073.3333333333335,530.7269201338793L1080,529.7026949814303L1086.6666666666667,529.674156809119L1093.3333333333333,527.0041305124765L1100,531.8116956545151L1106.6666666666667,554.738670639968L1113.3333333333335,532.3684644184427L1120,540.5307123987726L1126.6666666666667,525.0317139525845L1133.3333333333333,527.130108364615L1140,534.271052031664L1146.6666666666667,539.4595235719275L1153.3333333333333,520.576801480404L1160,554.2416107242346L1166.6666666666667,514.574024612466L1173.3333333333333,553.3378545451917L1180,539.7973683796085L1186.6666666666667,528.4979650613859L1193.3333333333333,547.5012890518308L1200,536.8046037846143" stroke="#4c78a8" stroke-width="2"></path></g></g><path class="foreground" aria-hidden="true" d="" display="none"></path></g><g transform="translate(0,0)"><path class="background" aria-hidden="true" d="M0,0h1200v600h-1200Z"></path><g><g class="mark-line role-mark marks" role="graphics-object" aria-roledescription="line mark container"><path aria-label="Library: StrideArrays; Size: 24; GFLOPS: 87.6170321333" role="graphics-symbol" aria-roledescription="line mark" d="M26.666666666666668,562.449843371437L33.33333333333333,572.8621900259038L40,572.8170968729065L46.666666666666664,571.5241622740333L53.333333333333336,571.1783012347523L60,569.4688862244799L66.66666666666666,566.4944059520782L73.33333333333333,566.7049790488951L80,562.9119719482018L86.66666666666666,568.4394028103045L93.33333333333333,567.406015037594L100,565.5544099728185L106.66666666666667,565.2766717523165L113.33333333333333,566.6741962366771L120,565.8611142794927L126.66666666666667,566.0785528435139L133.33333333333331,559.9845773892021L140,568.2732852539511L146.66666666666666,565.8709087977643L153.33333333333331,565.6473146774589L160,563.187023725493L166.66666666666669,562.4163662470976L173.33333333333331,562.1476173672575L180,563.4933093707879L186.66666666666666,530.1141677549817L193.33333333333334,546.3720485003191L200,544.4941940927022L206.66666666666666,544.2521402110638L213.33333333333334,538.8631334847094L219.99999999999997,544.3970121381886L226.66666666666666,537.7990534223828L233.33333333333334,541.295143131579L240,516.1590731870335L246.66666666666666,534.8816393506671L253.33333333333334,528.086492389598L260,530.9710576109147L266.66666666666663,523.7397842432167L273.3333333333333,526.4349094313802L280,526.8625075298637L286.6666666666667,524.6068399452804L293.3333333333333,483.80523360803755L300,508.40744858254584L306.66666666666663,506.495793005005L313.33333333333337,508.326219357315L320,497.18471152448774L326.66666666666663,503.4328283460623L333.33333333333337,498.6090355213243L340,498.1006079658353L346.66666666666663,467.92010484927914L353.33333333333337,494.43408354675125L360,492.7978835978836L366.6666666666667,490.70772817797643L373.3333333333333,480.56022764633195L380,488.29972168700493L386.6666666666667,481.2512915687021L393.3333333333333,480.65381046516325L400,449.87212415088806L406.6666666666667,482.5636667479985L413.3333333333333,477.29028130027774L420,480.04887940981087L426.6666666666667,468.62798590684287L433.3333333333333,476.93296817073576L439.99999999999994,468.6377529946303L446.6666666666667,471.18905878133864L453.3333333333333,431.3805485821507L460.00000000000006,471.7849651409518L466.6666666666667,461.4595210946408L473.3333333333333,453.7607219095672L480,440.92717306186375L486.6666666666667,449.31491195204194L493.3333333333333,442.7023546493277L500,440.59711204759543L506.6666666666667,405.70198748215654L513.3333333333333,454.66026142923494L520,448.30086498683715L526.6666666666666,449.55503202215493L533.3333333333333,436.99343445777674L540,444.4398198243539L546.6666666666666,436.38202593664874L553.3333333333334,441.4438070732084L560,395.70214311660004L566.6666666666666,445.06261515880203L573.3333333333334,438.62300709091727L580,438.53535841695515L586.6666666666666,427.82901061052667L593.3333333333334,417.66404002384155L600,412.71019094836277L606.6666666666666,413.85093167701865L613.3333333333333,365.7987099283654L620.0000000000001,417.1217754269153L626.6666666666667,413.7328594897241L633.3333333333334,410.2256952568121L640,400.2998899721092L646.6666666666666,409.6886195526245L653.3333333333333,397.48885316789836L660,404.0132971506106L666.6666666666667,353.7830212875096L673.3333333333334,415.6512253074108L680,406.27625488232053L686.6666666666666,408.40494208494215L693.3333333333333,393.9242810906885L700,405.09463564997554L706.6666666666667,392.4370914373335L713.3333333333334,384.6313705103418L720,329.8122866161345L726.6666666666666,383.95924118150253L733.3333333333334,377.756547150725L740,371.6270126586564L746.6666666666666,368.7596407346172L753.3333333333334,370.5602457617476L760,363.0543592436974L766.6666666666666,366.14627887082986L773.3333333333334,252.64448658700493L780,296.4686717654871L786.6666666666666,285.54014896947814L793.3333333333333,299.67917249091414L800,256.21574216180653L806.6666666666667,271.13623854332144L813.3333333333334,260.4528421219068L820,258.9149972297554L826.6666666666666,227.2063422703579L833.3333333333333,277.97726632552457L840,255.98927776933377L846.6666666666667,269.25L853.3333333333334,233.286633390365L860,250.742986186468L866.6666666666666,247.64224812945878L873.3333333333333,251.44478065241842L879.9999999999999,183.46071502703342L886.6666666666667,262.79403088124525L893.3333333333334,224.95363603689944L900,228.33105995076178L906.6666666666666,207.6596506941335L913.3333333333333,215.369765438643L920.0000000000001,205.31883526233278L926.6666666666667,233.1907651594653L933.3333333333334,155.11841906773273L940,220.78893247111196L946.6666666666666,191.55269478336047L953.3333333333333,232.39563704269588L960,203.77183579363412L966.6666666666667,207.1829364269682L973.3333333333334,219.30040364529148L980,221.4932072762736L986.6666666666666,126.2552745075183L993.3333333333333,216.10236084783728L1000,180.77223920927256L1006.6666666666667,249.3007820262546L1013.3333333333334,194.91716753572425L1020,211.03916364091643L1026.6666666666665,199.97792852080585L1033.3333333333335,228.0364372469635L1040,118.45106583441294L1046.6666666666667,216.84346173777845L1053.3333333333333,203.73201550478376L1060,208.41127472177337L1066.6666666666665,160.54003139717423L1073.3333333333335,197.89278933092223L1080,171.17477178423235L1086.6666666666667,201.0792180177052L1093.3333333333333,67.85181810416015L1100,202.7589560198256L1106.6666666666667,164.50131408268L1113.3333333333335,197.94626333425555L1120,144.5475295596046L1126.6666666666667,197.41185473772092L1133.3333333333333,151.21046892039257L1140,186.53784304999257L1146.6666666666667,71.67454995583533L1153.3333333333333,179.1812567682266L1160,160.57231127249383L1166.6666666666667,167.8221717083406L1173.3333333333333,133.7796720364083L1180,170.00151856017993L1186.6666666666667,141.89762757209743L1193.3333333333333,149.37964357190504L1200,31.55576082708629" stroke="#54a24b" stroke-width="2"></path></g></g><path class="foreground" aria-hidden="true" d="" display="none"></path></g><g transform="translate(0,0)"><path class="background" aria-hidden="true" d="M0,0h1200v600h-1200Z"></path><g><g class="mark-line role-mark marks" role="graphics-object" aria-roledescription="line mark container"><path aria-label="Library: Tullio; Size: 24; GFLOPS: 84.3734960908" role="graphics-symbol" aria-roledescription="line mark" d="M26.666666666666668,563.839930246779L33.33333333333333,572.7084829312788L40,573.1993365014388L46.666666666666664,571.9177146704499L53.333333333333336,571.4895758312678L60,570.6315649606707L66.66666666666666,566.8110512760477L73.33333333333333,566.4460389742793L80,562.6900639630287L86.66666666666666,568.4869850158457L93.33333333333333,567.1677781335709L100,565.4767496477219L106.66666666666667,564.9356798396693L113.33333333333333,566.8826413860739L120,565.2250330076578L126.66666666666667,566.2966610480862L133.33333333333331,560.43480500747L140,566.1654393716249L146.66666666666666,564.6335486745378L153.33333333333331,564.5667045479867L160,562.8782057334602L166.66666666666669,561.9916579770594L173.33333333333331,562.2104824214538L180,562.9237901252529L186.66666666666666,557.8738748906633L193.33333333333334,568.0627078384798L200,567.3792488528369L206.66666666666666,568.2698971938864L213.33333333333334,562.6421348034738L219.99999999999997,564.2314264691897L226.66666666666666,563.992625375758L233.33333333333334,564.3201801415397L240,560.031066414418L246.66666666666666,566.4150521384313L253.33333333333334,564.6119524802757L260,569.1898122296582L266.66666666666663,563.2774498229044L273.3333333333333,565.8615295916577L280,567.1869148584645L286.6666666666667,563.2184657628283L293.3333333333333,565.4209207228598L300,597.4057390986725L306.66666666666663,597.1771313364055L313.33333333333337,597.1578539535543L320,597.0177032138945L326.66666666666663,596.8194288683383L333.33333333333337,596.7296632888019L340,596.6667297889645L346.66666666666663,596.4944900821479L353.33333333333337,596.3756968016223L360,596.2389702640702L366.6666666666667,596.0565857549467L373.3333333333333,595.6013988116114L380,595.6105620926763L386.6666666666667,595.4112175137874L393.3333333333333,595.394504668183L400,595.1083737253427L406.6666666666667,597.4418282248456L413.3333333333333,597.3478726193082L420,597.2351794901551L426.6666666666667,597.0948350793724L433.3333333333333,597.0432516969356L439.99999999999994,596.8835373636362L446.6666666666667,596.7456128573652L453.3333333333333,596.7787503811063L460.00000000000006,596.5688343988261L466.6666666666667,596.3641502219415L473.3333333333333,596.3728569904368L480,596.3375190977625L486.6666666666667,594.4772958999763L493.3333333333333,591.274415770647L500,592.1288185386081L506.6666666666667,589.1242378548483L513.3333333333333,591.9618262791852L520,591.5826464389307L526.6666666666666,589.5087310197182L533.3333333333333,592.5983950853343L540,592.527625204282L546.6666666666666,593.0710874171191L553.3333333333334,587.4771283026869L560,593.2885344364671L566.6666666666666,591.4763941861663L573.3333333333334,592.704156818704L580,592.7727711172707L586.6666666666666,593.3529109649277L593.3333333333334,593.1555573955761L600,589.7591883265519L606.6666666666666,587.5420561457098L613.3333333333333,588.8695652173913L620.0000000000001,588.0379447230141L626.6666666666667,584.1615548262259L633.3333333333334,585.7723640615865L640,585.3349096563355L646.6666666666666,588.9901182714021L653.3333333333333,588.2509373562383L660,588.5764969195606L666.6666666666667,582.136611504036L673.3333333333334,589.9439019798356L680,590.0426640296771L686.6666666666666,587.9197426675842L693.3333333333333,588.0371192236503L700,589.8586287438156L706.6666666666667,589.7628620387011L713.3333333333334,588.2969828086941L720,587.5391050830269L726.6666666666666,589.8103349659307L733.3333333333334,588.361004863267L740,586.7467130958358L746.6666666666666,587.8662099139719L753.3333333333334,589.6694398622965L760,587.0854580814379L766.6666666666666,588.8730393228361L773.3333333333334,584.7793957033034L780,585.0602475672734L786.6666666666666,585.0657786693109L793.3333333333333,583.0693481888062L800,584.679221193744L806.6666666666667,584.6517010192154L813.3333333333334,583.9126964358286L820,584.9317778367501L826.6666666666666,582.4651973997146L833.3333333333333,585.4810442170634L840,584.7181125664134L846.6666666666667,582.3903477001087L853.3333333333334,581.8927852288077L860,580.219027221183L866.6666666666666,580.2813966418975L873.3333333333333,579.8820583738301L879.9999999999999,581.0990898864915L886.6666666666667,581.9705816961166L893.3333333333334,579.17365532382L900,580.940395791801L906.6666666666666,581.0786732267146L913.3333333333333,581.3854826800836L920.0000000000001,579.4067267430326L926.6666666666667,576.2125947207863L933.3333333333334,575.6037999940439L940,578.5585532664793L946.6666666666666,578.82935371403L953.3333333333333,576.9168608436951L960,576.4140191588398L966.6666666666667,574.7708783612385L973.3333333333334,576.3822787337232L980,577.1470622149493L986.6666666666666,570.7912177943872L993.3333333333333,572.0922720229422L1000,571.3072907592111L1006.6666666666667,575.1573993875729L1013.3333333333334,573.5993047598871L1020,572.3080950746754L1026.6666666666665,575.3984126724683L1033.3333333333335,573.7393456773891L1040,569.6553750932305L1046.6666666666667,573.8907585644051L1053.3333333333333,570.4861521285967L1060,574.2218052209557L1066.6666666666665,571.8885794140401L1073.3333333333335,573.3225814191687L1080,574.5463573222994L1086.6666666666667,568.8763413647345L1093.3333333333333,568.64072650573L1100,573.5620301209724L1106.6666666666667,568.2696539827365L1113.3333333333335,571.6612763080631L1120,566.9739978843097L1126.6666666666667,566.8964298176867L1133.3333333333333,563.2192660476665L1140,563.2398344495765L1146.6666666666667,559.3475984664647L1153.3333333333333,568.6010249317561L1160,568.5979761719587L1166.6666666666667,562.6369330359242L1173.3333333333333,567.7531328070351L1180,563.8983205313857L1186.6666666666667,565.3181046108388L1193.3333333333333,567.3857664314132L1200,559.85608406136" stroke="#eeca3b" stroke-width="2"></path></g></g><path class="foreground" aria-hidden="true" d="" display="none"></path></g><g transform="translate(0,0)"><path class="background" aria-hidden="true" d="M0,0h1200v600h-1200Z"></path><g><g class="mark-line role-mark marks" role="graphics-object" aria-roledescription="line mark container"><path aria-label="Library: Gaius; Size: 24; GFLOPS: 80.6611781632" role="graphics-symbol" aria-roledescription="line mark" d="M26.666666666666668,565.4309236443358L33.33333333333333,573.7703006943584L40,574.1570946488831L46.666666666666664,572.8050553260994L53.333333333333336,572.1824060738437L60,570.3600684986806L66.66666666666666,567.9754229308858L73.33333333333333,567.5206433131913L80,564.1421344950757L86.66666666666666,568.9551508170758L93.33333333333333,568.6408425419875L100,568.0989583333334L106.66666666666667,565.7465891710003L113.33333333333333,567.5775840916607L120,566.4528224984716L126.66666666666667,566.1935790273556L133.33333333333331,599.7982473791861L140,599.7818003950035L146.66666666666666,599.7479759977141L153.33333333333331,599.7491474656922L160,599.7325286753601L166.66666666666669,599.7156400322665L173.33333333333331,599.6913523417735L180,599.6705678906578L186.66666666666666,599.6120361681416L193.33333333333334,599.6172572417563L200,599.1129823897437L206.66666666666666,599.5771929200135L213.33333333333334,599.5440590808741L219.99999999999997,599.5249978330727L226.66666666666666,599.4859336708265L233.33333333333334,599.4739840105893L240,599.4438154919377L246.66666666666666,599.405188099244L253.33333333333334,599.3575569127531L260,599.3257556068301L266.66666666666663,599.2878518292207L273.3333333333333,599.2803848836472L280,599.204376361771L286.6666666666667,599.180604512819L293.3333333333333,599.1887130060086L300,599.1446946672861L306.66666666666663,599.093201757268L313.33333333333337,599.0653912964216L320,599.0128555365037L326.66666666666663,598.9515458291178L333.33333333333337,598.9254385964912L340,598.8890990308238L346.66666666666663,596.0084981392497L353.33333333333337,596.5734984754642L360,596.0646401864622L366.6666666666667,596.6060936791889L373.3333333333333,595.4423040983436L380,596.1676835538493L386.6666666666667,595.9942600533477L393.3333333333333,596.104521715771L400,594.543342415921L406.6666666666667,595.8363798990645L413.3333333333333,595.4955618824317L420,595.3938540360413L426.6666666666667,594.7188922846628L433.3333333333333,594.5978853354524L439.99999999999994,594.8664244485188L446.6666666666667,594.7413084246491L453.3333333333333,594.0471963603276L460.00000000000006,594.6754272119034L466.6666666666667,594.4019248982518L473.3333333333333,594.6845024523519L480,593.7283589342261L486.6666666666667,593.5312824197064L493.3333333333333,592.4239484217776L500,593.6205555948258L506.6666666666667,592.6890989621207L513.3333333333333,593.6819781870541L520,592.9592515338494L526.6666666666666,592.8343799463852L533.3333333333333,591.8355683464985L540,592.7192182395078L546.6666666666666,592.0205725113351L553.3333333333334,591.7149655651734L560,583.2945952100432L566.6666666666666,592.57253428349L573.3333333333334,592.1138434068268L580,591.8352420793519L586.6666666666666,592.0767182566472L593.3333333333334,593.3645480094517L600,593.702975355972L606.6666666666666,592.0746447694769L613.3333333333333,592.5416111830248L620.0000000000001,591.8291203455082L626.6666666666667,592.7974156057032L633.3333333333334,591.1032973932644L640,592.1004289130408L646.6666666666666,591.846898111658L653.3333333333333,592.2421521981714L660,592.3480006780954L666.6666666666667,591.6232058527678L673.3333333333334,591.6748127308556L680,591.9559608100825L686.6666666666666,582.9310098116254L693.3333333333333,590.4792886604458L700,591.2334806046252L706.6666666666667,590.2267011707839L713.3333333333334,590.0463348480787L720,589.3110610861457L726.6666666666666,590.497535877331L733.3333333333334,589.8653323943402L740,589.5347496952802L746.6666666666666,589.4673230600142L753.3333333333334,582.9168523334718L760,588.7762523352642L766.6666666666666,588.9703410155602L773.3333333333334,577.9279813394365L780,578.8518599748329L786.6666666666666,578.6692567316212L793.3333333333333,577.431551849948L800,576.9210389457468L806.6666666666667,575.6173804884837L813.3333333333334,575.3255229764957L820,577.7746562371346L826.6666666666666,590.1761600072819L833.3333333333333,590.5011427138168L840,590.4144442345442L846.6666666666667,590.2199592668024L853.3333333333334,590.2558567801586L860,590.4574586389746L866.6666666666666,589.634197218484L873.3333333333333,590.51550423544L879.9999999999999,589.2135483028787L886.6666666666667,590.5886007539818L893.3333333333334,589.671549608045L900,590.6081020869343L906.6666666666666,588.9594083635823L913.3333333333333,589.9591618046678L920.0000000000001,589.523990130382L926.6666666666667,589.4876960916997L933.3333333333334,588.5075692639205L940,588.6046656833669L946.6666666666666,589.4456410027258L953.3333333333333,589.718143713025L960,587.3257779976428L966.6666666666667,589.468060413951L973.3333333333334,587.6564650050776L980,588.8505644583734L986.6666666666666,587.3362809523364L993.3333333333333,586.7464598394337L1000,587.9804918465264L1006.6666666666667,589.0899448810909L1013.3333333333334,588.4037720885502L1020,587.8400448723268L1026.6666666666665,588.0836223692703L1033.3333333333335,586.7093991129474L1040,586.7135497141297L1046.6666666666667,588.6584355434535L1053.3333333333333,588.2448145854082L1060,584.0463523197254L1066.6666666666665,587.9016490364918L1073.3333333333335,587.2882003049822L1080,587.626447515876L1086.6666666666667,584.3741500443437L1093.3333333333333,585.9773443672682L1100,584.4587230950867L1106.6666666666667,581.2640220896349L1113.3333333333335,583.0779763036916L1120,586.6382486695402L1126.6666666666667,586.71166988151L1133.3333333333333,586.6248757680605L1140,581.7471482665626L1146.6666666666667,578.8941844775275L1153.3333333333333,585.3245416464798L1160,583.0143489912901L1166.6666666666667,587.0220631562735L1173.3333333333333,581.498896335835L1180,586.6178126398468L1186.6666666666667,585.6449514834219L1193.3333333333333,586.1589075501108L1200,584.37485249698" stroke="#f58518" stroke-width="2"></path></g></g><path class="foreground" aria-hidden="true" d="" display="none"></path></g></g><g class="mark-group role-legend" role="graphics-symbol" aria-roledescription="legend" aria-label="Symbol legend titled 'Library' for stroke color with 6 values: BLIS, Gaius, MKL, OpenBLAS, StrideArrays, Tullio"><g transform="translate(1220,0)"><path class="background" aria-hidden="true" d="M0,0h77v92h-77Z" pointer-events="none"></path><g><g class="mark-group role-legend-entry"><g transform="translate(0,16)"><path class="background" aria-hidden="true" d="M0,0h0v0h0Z" pointer-events="none"></path><g><g class="mark-group role-scope" role="graphics-object" aria-roledescription="group mark container"><g transform="translate(0,0)"><path class="background" aria-hidden="true" d="M0,0h77v11h-77Z" pointer-events="none" opacity="1"></path><g><g class="mark-symbol role-legend-symbol" pointer-events="none"><path transform="translate(6,6)" d="M-5,0L5,0" stroke="#4c78a8" stroke-width="1.5" opacity="1"></path></g><g class="mark-text role-legend-label" pointer-events="none"><text text-anchor="start" transform="translate(16,9)" font-family="sans-serif" font-size="10px" fill="#000" opacity="1">BLIS</text></g></g><path class="foreground" aria-hidden="true" d="" pointer-events="none" display="none"></path></g><g transform="translate(0,13)"><path class="background" aria-hidden="true" d="M0,0h77v11h-77Z" pointer-events="none" opacity="1"></path><g><g class="mark-symbol role-legend-symbol" pointer-events="none"><path transform="translate(6,6)" d="M-5,0L5,0" stroke="#f58518" stroke-width="1.5" opacity="1"></path></g><g class="mark-text role-legend-label" pointer-events="none"><text text-anchor="start" transform="translate(16,9)" font-family="sans-serif" font-size="10px" fill="#000" opacity="1">Gaius</text></g></g><path class="foreground" aria-hidden="true" d="" pointer-events="none" display="none"></path></g><g transform="translate(0,26)"><path class="background" aria-hidden="true" d="M0,0h77v11h-77Z" pointer-events="none" opacity="1"></path><g><g class="mark-symbol role-legend-symbol" pointer-events="none"><path transform="translate(6,6)" d="M-5,0L5,0" stroke="#e45756" stroke-width="1.5" opacity="1"></path></g><g class="mark-text role-legend-label" pointer-events="none"><text text-anchor="start" transform="translate(16,9)" font-family="sans-serif" font-size="10px" fill="#000" opacity="1">MKL</text></g></g><path class="foreground" aria-hidden="true" d="" pointer-events="none" display="none"></path></g><g transform="translate(0,39)"><path class="background" aria-hidden="true" d="M0,0h77v11h-77Z" pointer-events="none" opacity="1"></path><g><g class="mark-symbol role-legend-symbol" pointer-events="none"><path transform="translate(6,6)" d="M-5,0L5,0" stroke="#72b7b2" stroke-width="1.5" opacity="1"></path></g><g class="mark-text role-legend-label" pointer-events="none"><text text-anchor="start" transform="translate(16,9)" font-family="sans-serif" font-size="10px" fill="#000" opacity="1">OpenBLAS</text></g></g><path class="foreground" aria-hidden="true" d="" pointer-events="none" display="none"></path></g><g transform="translate(0,52)"><path class="background" aria-hidden="true" d="M0,0h77v11h-77Z" pointer-events="none" opacity="1"></path><g><g class="mark-symbol role-legend-symbol" pointer-events="none"><path transform="translate(6,6)" d="M-5,0L5,0" stroke="#54a24b" stroke-width="1.5" opacity="1"></path></g><g class="mark-text role-legend-label" pointer-events="none"><text text-anchor="start" transform="translate(16,9)" font-family="sans-serif" font-size="10px" fill="#000" opacity="1">StrideArrays</text></g></g><path class="foreground" aria-hidden="true" d="" pointer-events="none" display="none"></path></g><g transform="translate(0,65)"><path class="background" aria-hidden="true" d="M0,0h77v11h-77Z" pointer-events="none" opacity="1"></path><g><g class="mark-symbol role-legend-symbol" pointer-events="none"><path transform="translate(6,6)" d="M-5,0L5,0" stroke="#eeca3b" stroke-width="1.5" opacity="1"></path></g><g class="mark-text role-legend-label" pointer-events="none"><text text-anchor="start" transform="translate(16,9)" font-family="sans-serif" font-size="10px" fill="#000" opacity="1">Tullio</text></g></g><path class="foreground" aria-hidden="true" d="" pointer-events="none" display="none"></path></g></g></g><path class="foreground" aria-hidden="true" d="" pointer-events="none" display="none"></path></g></g><g class="mark-text role-legend-title" pointer-events="none"><text text-anchor="start" transform="translate(0,9)" font-family="sans-serif" font-size="11px" font-weight="bold" fill="#000" opacity="1">Library</text></g></g><path class="foreground" aria-hidden="true" d="" pointer-events="none" display="none"></path></g></g></g><path class="foreground" aria-hidden="true" d="" display="none"></path></g></g></g></svg>
