<?xml version="1.0" encoding="utf-8"?>
<!DOCTYPE svg PUBLIC "-//W3C//DTD SVG 1.1//EN" "http://www.w3.org/Graphics/SVG/1.1/DTD/svg11.dtd">
<svg class="marks" width="1341" height="647" viewBox="0 0 1341 647" version="1.1" xmlns="http://www.w3.org/2000/svg" xmlns:xlink="http://www.w3.org/1999/xlink"><rect width="1341" height="647" fill="white"></rect><g fill="none" stroke-miterlimit="10" transform="translate(39,10)"><g class="mark-group role-frame root" role="graphics-object" aria-roledescription="group mark container"><g transform="translate(0,0)"><path class="background" aria-hidden="true" d="M0.5,0.5h1200v600h-1200Z" stroke="#ddd"></path><g><g class="mark-group role-axis" aria-hidden="true"><g transform="translate(0.5,600.5)"><path class="background" aria-hidden="true" d="M0,0h0v0h0Z" pointer-events="none"></path><g><g class="mark-rule role-axis-grid" pointer-events="none"><line transform="translate(0,-600)" x2="0" y2="600" stroke="#ddd" stroke-width="1" opacity="1"></line><line transform="translate(33,-600)" x2="0" y2="600" stroke="#ddd" stroke-width="1" opacity="1"></line><line transform="translate(67,-600)" x2="0" y2="600" stroke="#ddd" stroke-width="1" opacity="1"></line><line transform="translate(100,-600)" x2="0" y2="600" stroke="#ddd" stroke-width="1" opacity="1"></line><line transform="translate(133,-600)" x2="0" y2="600" stroke="#ddd" stroke-width="1" opacity="1"></line><line transform="translate(167,-600)" x2="0" y2="600" stroke="#ddd" stroke-width="1" opacity="1"></line><line transform="translate(200,-600)" x2="0" y2="600" stroke="#ddd" stroke-width="1" opacity="1"></line><line transform="translate(233,-600)" x2="0" y2="600" stroke="#ddd" stroke-width="1" opacity="1"></line><line transform="translate(267,-600)" x2="0" y2="600" stroke="#ddd" stroke-width="1" opacity="1"></line><line transform="translate(300,-600)" x2="0" y2="600" stroke="#ddd" stroke-width="1" opacity="1"></line><line transform="translate(333,-600)" x2="0" y2="600" stroke="#ddd" stroke-width="1" opacity="1"></line><line transform="translate(367,-600)" x2="0" y2="600" stroke="#ddd" stroke-width="1" opacity="1"></line><line transform="translate(400,-600)" x2="0" y2="600" stroke="#ddd" stroke-width="1" opacity="1"></line><line transform="translate(433,-600)" x2="0" y2="600" stroke="#ddd" stroke-width="1" opacity="1"></line><line transform="translate(467,-600)" x2="0" y2="600" stroke="#ddd" stroke-width="1" opacity="1"></line><line transform="translate(500,-600)" x2="0" y2="600" stroke="#ddd" stroke-width="1" opacity="1"></line><line transform="translate(533,-600)" x2="0" y2="600" stroke="#ddd" stroke-width="1" opacity="1"></line><line transform="translate(567,-600)" x2="0" y2="600" stroke="#ddd" stroke-width="1" opacity="1"></line><line transform="translate(600,-600)" x2="0" y2="600" stroke="#ddd" stroke-width="1" opacity="1"></line><line transform="translate(633,-600)" x2="0" y2="600" stroke="#ddd" stroke-width="1" opacity="1"></line><line transform="translate(667,-600)" x2="0" y2="600" stroke="#ddd" stroke-width="1" opacity="1"></line><line transform="translate(700,-600)" x2="0" y2="600" stroke="#ddd" stroke-width="1" opacity="1"></line><line transform="translate(733,-600)" x2="0" y2="600" stroke="#ddd" stroke-width="1" opacity="1"></line><line transform="translate(767,-600)" x2="0" y2="600" stroke="#ddd" stroke-width="1" opacity="1"></line><line transform="translate(800,-600)" x2="0" y2="600" stroke="#ddd" stroke-width="1" opacity="1"></line><line transform="translate(833,-600)" x2="0" y2="600" stroke="#ddd" stroke-width="1" opacity="1"></line><line transform="translate(867,-600)" x2="0" y2="600" stroke="#ddd" stroke-width="1" opacity="1"></line><line transform="translate(900,-600)" x2="0" y2="600" stroke="#ddd" stroke-width="1" opacity="1"></line><line transform="translate(933,-600)" x2="0" y2="600" stroke="#ddd" stroke-width="1" opacity="1"></line><line transform="translate(967,-600)" x2="0" y2="600" stroke="#ddd" stroke-width="1" opacity="1"></line><line transform="translate(1000,-600)" x2="0" y2="600" stroke="#ddd" stroke-width="1" opacity="1"></line><line transform="translate(1033,-600)" x2="0" y2="600" stroke="#ddd" stroke-width="1" opacity="1"></line><line transform="translate(1067,-600)" x2="0" y2="600" stroke="#ddd" stroke-width="1" opacity="1"></line><line transform="translate(1100,-600)" x2="0" y2="600" stroke="#ddd" stroke-width="1" opacity="1"></line><line transform="translate(1133,-600)" x2="0" y2="600" stroke="#ddd" stroke-width="1" opacity="1"></line><line transform="translate(1167,-600)" x2="0" y2="600" stroke="#ddd" stroke-width="1" opacity="1"></line><line transform="translate(1200,-600)" x2="0" y2="600" stroke="#ddd" stroke-width="1" opacity="1"></line></g></g><path class="foreground" aria-hidden="true" d="" pointer-events="none" display="none"></path></g></g><g class="mark-group role-axis" aria-hidden="true"><g transform="translate(0.5,0.5)"><path class="background" aria-hidden="true" d="M0,0h0v0h0Z" pointer-events="none"></path><g><g class="mark-rule role-axis-grid" pointer-events="none"><line transform="translate(0,600)" x2="1200" y2="0" stroke="#ddd" stroke-width="1" opacity="1"></line><line transform="translate(0,540)" x2="1200" y2="0" stroke="#ddd" stroke-width="1" opacity="1"></line><line transform="translate(0,480)" x2="1200" y2="0" stroke="#ddd" stroke-width="1" opacity="1"></line><line transform="translate(0,420)" x2="1200" y2="0" stroke="#ddd" stroke-width="1" opacity="1"></line><line transform="translate(0,360)" x2="1200" y2="0" stroke="#ddd" stroke-width="1" opacity="1"></line><line transform="translate(0,300)" x2="1200" y2="0" stroke="#ddd" stroke-width="1" opacity="1"></line><line transform="translate(0,240)" x2="1200" y2="0" stroke="#ddd" stroke-width="1" opacity="1"></line><line transform="translate(0,180)" x2="1200" y2="0" stroke="#ddd" stroke-width="1" opacity="1"></line><line transform="translate(0,120)" x2="1200" y2="0" stroke="#ddd" stroke-width="1" opacity="1"></line><line transform="translate(0,60)" x2="1200" y2="0" stroke="#ddd" stroke-width="1" opacity="1"></line><line transform="translate(0,0)" x2="1200" y2="0" stroke="#ddd" stroke-width="1" opacity="1"></line></g></g><path class="foreground" aria-hidden="true" d="" pointer-events="none" display="none"></path></g></g><g class="mark-group role-axis" role="graphics-symbol" aria-roledescription="axis" aria-label="X-axis titled 'Size' for a linear scale with values from 20 to 200"><g transform="translate(0.5,600.5)"><path class="background" aria-hidden="true" d="M0,0h0v0h0Z" pointer-events="none"></path><g><g class="mark-rule role-axis-tick" pointer-events="none"><line transform="translate(0,0)" x2="0" y2="5" stroke="#888" stroke-width="1" opacity="1"></line><line transform="translate(33,0)" x2="0" y2="5" stroke="#888" stroke-width="1" opacity="1"></line><line transform="translate(67,0)" x2="0" y2="5" stroke="#888" stroke-width="1" opacity="1"></line><line transform="translate(100,0)" x2="0" y2="5" stroke="#888" stroke-width="1" opacity="1"></line><line transform="translate(133,0)" x2="0" y2="5" stroke="#888" stroke-width="1" opacity="1"></line><line transform="translate(167,0)" x2="0" y2="5" stroke="#888" stroke-width="1" opacity="1"></line><line transform="translate(200,0)" x2="0" y2="5" stroke="#888" stroke-width="1" opacity="1"></line><line transform="translate(233,0)" x2="0" y2="5" stroke="#888" stroke-width="1" opacity="1"></line><line transform="translate(267,0)" x2="0" y2="5" stroke="#888" stroke-width="1" opacity="1"></line><line transform="translate(300,0)" x2="0" y2="5" stroke="#888" stroke-width="1" opacity="1"></line><line transform="translate(333,0)" x2="0" y2="5" stroke="#888" stroke-width="1" opacity="1"></line><line transform="translate(367,0)" x2="0" y2="5" stroke="#888" stroke-width="1" opacity="1"></line><line transform="translate(400,0)" x2="0" y2="5" stroke="#888" stroke-width="1" opacity="1"></line><line transform="translate(433,0)" x2="0" y2="5" stroke="#888" stroke-width="1" opacity="1"></line><line transform="translate(467,0)" x2="0" y2="5" stroke="#888" stroke-width="1" opacity="1"></line><line transform="translate(500,0)" x2="0" y2="5" stroke="#888" stroke-width="1" opacity="1"></line><line transform="translate(533,0)" x2="0" y2="5" stroke="#888" stroke-width="1" opacity="1"></line><line transform="translate(567,0)" x2="0" y2="5" stroke="#888" stroke-width="1" opacity="1"></line><line transform="translate(600,0)" x2="0" y2="5" stroke="#888" stroke-width="1" opacity="1"></line><line transform="translate(633,0)" x2="0" y2="5" stroke="#888" stroke-width="1" opacity="1"></line><line transform="translate(667,0)" x2="0" y2="5" stroke="#888" stroke-width="1" opacity="1"></line><line transform="translate(700,0)" x2="0" y2="5" stroke="#888" stroke-width="1" opacity="1"></line><line transform="translate(733,0)" x2="0" y2="5" stroke="#888" stroke-width="1" opacity="1"></line><line transform="translate(767,0)" x2="0" y2="5" stroke="#888" stroke-width="1" opacity="1"></line><line transform="translate(800,0)" x2="0" y2="5" stroke="#888" stroke-width="1" opacity="1"></line><line transform="translate(833,0)" x2="0" y2="5" stroke="#888" stroke-width="1" opacity="1"></line><line transform="translate(867,0)" x2="0" y2="5" stroke="#888" stroke-width="1" opacity="1"></line><line transform="translate(900,0)" x2="0" y2="5" stroke="#888" stroke-width="1" opacity="1"></line><line transform="translate(933,0)" x2="0" y2="5" stroke="#888" stroke-width="1" opacity="1"></line><line transform="translate(967,0)" x2="0" y2="5" stroke="#888" stroke-width="1" opacity="1"></line><line transform="translate(1000,0)" x2="0" y2="5" stroke="#888" stroke-width="1" opacity="1"></line><line transform="translate(1033,0)" x2="0" y2="5" stroke="#888" stroke-width="1" opacity="1"></line><line transform="translate(1067,0)" x2="0" y2="5" stroke="#888" stroke-width="1" opacity="1"></line><line transform="translate(1100,0)" x2="0" y2="5" stroke="#888" stroke-width="1" opacity="1"></line><line transform="translate(1133,0)" x2="0" y2="5" stroke="#888" stroke-width="1" opacity="1"></line><line transform="translate(1167,0)" x2="0" y2="5" stroke="#888" stroke-width="1" opacity="1"></line><line transform="translate(1200,0)" x2="0" y2="5" stroke="#888" stroke-width="1" opacity="1"></line></g><g class="mark-text role-axis-label" pointer-events="none"><text text-anchor="start" transform="translate(0,15)" font-family="sans-serif" font-size="10px" fill="#000" opacity="1">20</text><text text-anchor="middle" transform="translate(33.33333333333333,15)" font-family="sans-serif" font-size="10px" fill="#000" opacity="1">25</text><text text-anchor="middle" transform="translate(66.66666666666666,15)" font-family="sans-serif" font-size="10px" fill="#000" opacity="1">30</text><text text-anchor="middle" transform="translate(100,15)" font-family="sans-serif" font-size="10px" fill="#000" opacity="1">35</text><text text-anchor="middle" transform="translate(133.33333333333331,15)" font-family="sans-serif" font-size="10px" fill="#000" opacity="1">40</text><text text-anchor="middle" transform="translate(166.66666666666669,15)" font-family="sans-serif" font-size="10px" fill="#000" opacity="1">45</text><text text-anchor="middle" transform="translate(200,15)" font-family="sans-serif" font-size="10px" fill="#000" opacity="1">50</text><text text-anchor="middle" transform="translate(233.33333333333334,15)" font-family="sans-serif" font-size="10px" fill="#000" opacity="1">55</text><text text-anchor="middle" transform="translate(266.66666666666663,15)" font-family="sans-serif" font-size="10px" fill="#000" opacity="1">60</text><text text-anchor="middle" transform="translate(300,15)" font-family="sans-serif" font-size="10px" fill="#000" opacity="1">65</text><text text-anchor="middle" transform="translate(333.33333333333337,15)" font-family="sans-serif" font-size="10px" fill="#000" opacity="1">70</text><text text-anchor="middle" transform="translate(366.6666666666667,15)" font-family="sans-serif" font-size="10px" fill="#000" opacity="1">75</text><text text-anchor="middle" transform="translate(400,15)" font-family="sans-serif" font-size="10px" fill="#000" opacity="1">80</text><text text-anchor="middle" transform="translate(433.3333333333333,15)" font-family="sans-serif" font-size="10px" fill="#000" opacity="1">85</text><text text-anchor="middle" transform="translate(466.6666666666667,15)" font-family="sans-serif" font-size="10px" fill="#000" opacity="1">90</text><text text-anchor="middle" transform="translate(500,15)" font-family="sans-serif" font-size="10px" fill="#000" opacity="1">95</text><text text-anchor="middle" transform="translate(533.3333333333333,15)" font-family="sans-serif" font-size="10px" fill="#000" opacity="1">100</text><text text-anchor="middle" transform="translate(566.6666666666666,15)" font-family="sans-serif" font-size="10px" fill="#000" opacity="1">105</text><text text-anchor="middle" transform="translate(600,15)" font-family="sans-serif" font-size="10px" fill="#000" opacity="1">110</text><text text-anchor="middle" transform="translate(633.3333333333334,15)" font-family="sans-serif" font-size="10px" fill="#000" opacity="1">115</text><text text-anchor="middle" transform="translate(666.6666666666667,15)" font-family="sans-serif" font-size="10px" fill="#000" opacity="1">120</text><text text-anchor="middle" transform="translate(700,15)" font-family="sans-serif" font-size="10px" fill="#000" opacity="1">125</text><text text-anchor="middle" transform="translate(733.3333333333334,15)" font-family="sans-serif" font-size="10px" fill="#000" opacity="1">130</text><text text-anchor="middle" transform="translate(766.6666666666666,15)" font-family="sans-serif" font-size="10px" fill="#000" opacity="1">135</text><text text-anchor="middle" transform="translate(800,15)" font-family="sans-serif" font-size="10px" fill="#000" opacity="1">140</text><text text-anchor="middle" transform="translate(833.3333333333333,15)" font-family="sans-serif" font-size="10px" fill="#000" opacity="1">145</text><text text-anchor="middle" transform="translate(866.6666666666666,15)" font-family="sans-serif" font-size="10px" fill="#000" opacity="1">150</text><text text-anchor="middle" transform="translate(900,15)" font-family="sans-serif" font-size="10px" fill="#000" opacity="1">155</text><text text-anchor="middle" transform="translate(933.3333333333334,15)" font-family="sans-serif" font-size="10px" fill="#000" opacity="1">160</text><text text-anchor="middle" transform="translate(966.6666666666667,15)" font-family="sans-serif" font-size="10px" fill="#000" opacity="1">165</text><text text-anchor="middle" transform="translate(1000,15)" font-family="sans-serif" font-size="10px" fill="#000" opacity="1">170</text><text text-anchor="middle" transform="translate(1033.3333333333335,15)" font-family="sans-serif" font-size="10px" fill="#000" opacity="1">175</text><text text-anchor="middle" transform="translate(1066.6666666666665,15)" font-family="sans-serif" font-size="10px" fill="#000" opacity="1">180</text><text text-anchor="middle" transform="translate(1100,15)" font-family="sans-serif" font-size="10px" fill="#000" opacity="1">185</text><text text-anchor="middle" transform="translate(1133.3333333333333,15)" font-family="sans-serif" font-size="10px" fill="#000" opacity="1">190</text><text text-anchor="middle" transform="translate(1166.6666666666667,15)" font-family="sans-serif" font-size="10px" fill="#000" opacity="1">195</text><text text-anchor="end" transform="translate(1200,15)" font-family="sans-serif" font-size="10px" fill="#000" opacity="1">200</text></g><g class="mark-rule role-axis-domain" pointer-events="none"><line transform="translate(0,0)" x2="1200" y2="0" stroke="#888" stroke-width="1" opacity="1"></line></g><g class="mark-text role-axis-title" pointer-events="none"><text text-anchor="middle" transform="translate(600,30)" font-family="sans-serif" font-size="11px" font-weight="bold" fill="#000" opacity="1">Size</text></g></g><path class="foreground" aria-hidden="true" d="" pointer-events="none" display="none"></path></g></g><g class="mark-group role-axis" role="graphics-symbol" aria-roledescription="axis" aria-label="Y-axis titled 'GFLOPS' for a linear scale with values from 0 to 50"><g transform="translate(0.5,0.5)"><path class="background" aria-hidden="true" d="M0,0h0v0h0Z" pointer-events="none"></path><g><g class="mark-rule role-axis-tick" pointer-events="none"><line transform="translate(0,600)" x2="-5" y2="0" stroke="#888" stroke-width="1" opacity="1"></line><line transform="translate(0,540)" x2="-5" y2="0" stroke="#888" stroke-width="1" opacity="1"></line><line transform="translate(0,480)" x2="-5" y2="0" stroke="#888" stroke-width="1" opacity="1"></line><line transform="translate(0,420)" x2="-5" y2="0" stroke="#888" stroke-width="1" opacity="1"></line><line transform="translate(0,360)" x2="-5" y2="0" stroke="#888" stroke-width="1" opacity="1"></line><line transform="translate(0,300)" x2="-5" y2="0" stroke="#888" stroke-width="1" opacity="1"></line><line transform="translate(0,240)" x2="-5" y2="0" stroke="#888" stroke-width="1" opacity="1"></line><line transform="translate(0,180)" x2="-5" y2="0" stroke="#888" stroke-width="1" opacity="1"></line><line transform="translate(0,120)" x2="-5" y2="0" stroke="#888" stroke-width="1" opacity="1"></line><line transform="translate(0,60)" x2="-5" y2="0" stroke="#888" stroke-width="1" opacity="1"></line><line transform="translate(0,0)" x2="-5" y2="0" stroke="#888" stroke-width="1" opacity="1"></line></g><g class="mark-text role-axis-label" pointer-events="none"><text text-anchor="end" transform="translate(-7,603)" font-family="sans-serif" font-size="10px" fill="#000" opacity="1">0</text><text text-anchor="end" transform="translate(-7,543)" font-family="sans-serif" font-size="10px" fill="#000" opacity="1">5</text><text text-anchor="end" transform="translate(-7,483)" font-family="sans-serif" font-size="10px" fill="#000" opacity="1">10</text><text text-anchor="end" transform="translate(-7,423)" font-family="sans-serif" font-size="10px" fill="#000" opacity="1">15</text><text text-anchor="end" transform="translate(-7,363)" font-family="sans-serif" font-size="10px" fill="#000" opacity="1">20</text><text text-anchor="end" transform="translate(-7,303)" font-family="sans-serif" font-size="10px" fill="#000" opacity="1">25</text><text text-anchor="end" transform="translate(-7,243)" font-family="sans-serif" font-size="10px" fill="#000" opacity="1">30</text><text text-anchor="end" transform="translate(-7,183.00000000000003)" font-family="sans-serif" font-size="10px" fill="#000" opacity="1">35</text><text text-anchor="end" transform="translate(-7,122.99999999999997)" font-family="sans-serif" font-size="10px" fill="#000" opacity="1">40</text><text text-anchor="end" transform="translate(-7,62.999999999999986)" font-family="sans-serif" font-size="10px" fill="#000" opacity="1">45</text><text text-anchor="end" transform="translate(-7,3)" font-family="sans-serif" font-size="10px" fill="#000" opacity="1">50</text></g><g class="mark-rule role-axis-domain" pointer-events="none"><line transform="translate(0,600)" x2="0" y2="-600" stroke="#888" stroke-width="1" opacity="1"></line></g><g class="mark-text role-axis-title" pointer-events="none"><text text-anchor="middle" transform="translate(-23,300) rotate(-90) translate(0,-2)" font-family="sans-serif" font-size="11px" font-weight="bold" fill="#000" opacity="1">GFLOPS</text></g></g><path class="foreground" aria-hidden="true" d="" pointer-events="none" display="none"></path></g></g><g class="mark-group role-scope pathgroup" role="graphics-object" aria-roledescription="group mark container"><g transform="translate(0,0)"><path class="background" aria-hidden="true" d="M0,0h1200v600h-1200Z"></path><g><g class="mark-line role-mark marks" role="graphics-object" aria-roledescription="line mark container"><path aria-label="Library: MKL; Size: 24; GFLOPS: 16.6143861547" role="graphics-symbol" aria-roledescription="line mark" d="M26.666666666666668,400.62736614386154L33.33333333333333,447.3057955933583L40,437.2034305317324L46.666666666666664,422.22337445118126L53.333333333333336,402.10217028380634L60,417.2324265251161L66.66666666666666,400L73.33333333333333,403.2447456227856L80,369.2563632362649L86.66666666666666,403.82713802963343L93.33333333333333,395.4058375162669L100,389.4044382071748L106.66666666666667,358.68329177057353L113.33333333333333,392.7714074663333L120,378.39443571909356L126.66666666666667,354.56322730799064L133.33333333333331,320.0571064062452L140,364.2467129877071L146.66666666666666,348.9783299216489L153.33333333333331,330.4371534522338L160,304.6921854687274L166.66666666666669,333.1191018548649L173.33333333333331,311.964489745592L180,319.0281526028941L186.66666666666666,235.09771438391468L193.33333333333334,316.9631114675221L200,306.1704211557297L206.66666666666666,286.2806464327946L213.33333333333334,268.08380053113007L219.99999999999997,286.90431125131437L226.66666666666666,265.2669619131975L233.33333333333334,270.8432940400626L240,391.0369856222111L246.66666666666666,258.94475138121544L253.33333333333334,236.3525665915974L260,238.3376623376623L266.66666666666663,194.36619718309854L273.3333333333333,235.20096430723893L280,206.15079529022935L286.6666666666667,201.09492156341392L293.3333333333333,164.63525015569851L300,243.2090077410274L306.66666666666663,224.7400881057268L313.33333333333337,236.28378514562124L320,197.9344664073738L326.66666666666663,212.45497443963814L333.33333333333337,192.43489454401416L340,194.16687139752432L346.66666666666663,149.60269495701132L353.33333333333337,188.63200563976034L360,181.84813827500213L366.6666666666667,181.40400198445502L373.3333333333333,145.9847446670976L380,173.15080447232074L386.6666666666667,159.20551126248156L393.3333333333333,159.62277633048006L400,92.06349206349216L406.6666666666667,200.60798496946913L413.3333333333333,183.82085796955587L420,181.96338379992088L426.6666666666667,140.91024689365818L433.3333333333333,179.49844512282107L439.99999999999994,169.97819656891747L446.6666666666667,174.2093380391734L453.3333333333333,124.05633802816895L460.00000000000006,156.69297280301834L466.6666666666667,355.9390126522243L473.3333333333333,139.01807152142325L480,99.7185994217796L486.6666666666667,133.8412054476963L493.3333333333333,116.61050487414516L500,347.0963460049408L506.6666666666667,70.74616151545365L513.3333333333333,170.08533856722266L520,158.4540443332421L526.6666666666666,157.40423833507555L533.3333333333333,119.98079923196931L540,147.57617784283224L546.6666666666666,353.14046446710347L553.3333333333334,143.5639173642898L560,90.80055830095432L566.6666666666666,128.0618311533888L573.3333333333334,114.96811633549962L580,112.94571357574748L586.6666666666666,71.10739464338818L593.3333333333334,110.30115489451539L600,342.0084317304431L606.6666666666666,98.71492715110418L613.3333333333333,44.21652271378649L620.0000000000001,356.8714553509369L626.6666666666667,134.34971189104238L633.3333333333334,136.57762429536334L640,99.67273018671365L646.6666666666666,124.55580843063521L653.3333333333333,116.76713806034167L660,111.2529788519637L666.6666666666667,52.32687126934654L673.3333333333334,116.88542956810251L680,108.7379017258288L686.6666666666666,111.27881553461809L693.3333333333333,62.09575756150885L700,106.17348981268819L706.6666666666667,90.2310093652445L713.3333333333334,93.9400689690669L720,67.62657866345114L726.6666666666666,150.64728097335475L733.3333333333334,153.16011593023845L740,171.4827057636864L746.6666666666666,120.19859882134092L753.3333333333334,148.48513830136017L760,154.35985213881656L766.6666666666666,161.01314380873086L773.3333333333334,118.97578582526597L780,148.6808933873539L786.6666666666666,151.57456489591615L793.3333333333333,367.3790119134837L800,120.65333692416303L806.6666666666667,143.99398113002923L813.3333333333334,151.960776387594L820,157.7229283909227L826.6666666666666,103.50483237378666L833.3333333333333,134.72385615719685L840,138.40713914913601L846.6666666666667,149.4772896500372L853.3333333333334,132.68098601701027L860,158.56982246217655L866.6666666666666,163.40351217619093L873.3333333333333,172.18907780562057L879.9999999999999,162.88175255165544L886.6666666666667,120.61877195917674L893.3333333333334,124.9396462018731L900,136.2041318325471L906.6666666666666,89.44882383924862L913.3333333333333,126.70784816319036L920.0000000000001,124.47135178580398L926.6666666666667,136.61862127267136L933.3333333333334,95.14164218656917L940,120.98929194863572L946.6666666666666,127.73262611255353L953.3333333333333,134.82221834342562L960,94.4283640253687L966.6666666666667,126.93932891913593L973.3333333333334,128.20827352660575L980,138.20588794236005L986.6666666666666,87.97465950965781L993.3333333333333,112.06361855822078L1000,118.2290283435548L1006.6666666666667,127.62094755239248L1013.3333333333334,94.22357696640383L1020,131.3876844522715L1026.6666666666665,127.24881842656288L1033.3333333333335,134.11593405001292L1040,86.24292636191582L1046.6666666666667,115.30861176059253L1053.3333333333333,118.21012315796966L1060,130.78924601429645L1066.6666666666665,87.94193397330834L1073.3333333333335,118.40807831963372L1080,119.09635646907884L1086.6666666666667,124.96951845751367L1093.3333333333333,88.18579047905959L1100,114.51108938601038L1106.6666666666667,115.55398851908774L1113.3333333333335,127.96330562205998L1120,92.5875304262054L1126.6666666666667,118.15656373412L1133.3333333333333,121.28559837846157L1140,129.61770041938925L1146.6666666666667,107.0464980629434L1153.3333333333333,134.26432940490525L1160,133.7607730867061L1166.6666666666667,141.39403513564358L1173.3333333333333,82.18136804009389L1180,110.0389268805892L1186.6666666666667,111.70071529108331L1193.3333333333333,117.91034915197214L1200,74.01871616734972" stroke="#e45756" stroke-width="2"></path></g></g><path class="foreground" aria-hidden="true" d="" display="none"></path></g><g transform="translate(0,0)"><path class="background" aria-hidden="true" d="M0,0h1200v600h-1200Z"></path><g><g class="mark-line role-mark marks" role="graphics-object" aria-roledescription="line mark container"><path aria-label="Library: OpenBLAS; Size: 24; GFLOPS: 9.8539521622" role="graphics-symbol" aria-roledescription="line mark" d="M26.666666666666668,481.7525740535403L33.33333333333333,494.13134770794363L40,494.84304010470225L46.666666666666664,500.0591168736966L53.333333333333336,480.17622977451424L60,489.71184524557214L66.66666666666666,490.1260385463178L73.33333333333333,497.71330472103006L80,469.5627944005838L86.66666666666666,476.797988743822L93.33333333333333,478.40598111565856L100,487.65149033737305L106.66666666666667,467.0874416396296L113.33333333333333,476.806647750304L120,478.3438337182448L126.66666666666667,486.3802075019952L133.33333333333331,452.1370812475934L140,464.5176509132607L146.66666666666666,465.28433972270625L153.33333333333331,471.93503355704695L160,450.67445767292384L166.66666666666669,461.22215876641917L173.33333333333331,463.3401193401193L180,472.6488807114382L186.66666666666666,430.17416341416595L193.33333333333334,443.04747081712065L200,445.5916413608523L206.66666666666666,455.748799275034L213.33333333333334,433.0979771502053L219.99999999999997,445.0274115197779L226.66666666666666,447.1965065502183L233.33333333333334,458.44943103264916L240,419.6806708308377L246.66666666666666,433.67765595180185L253.33333333333334,436.4869055101613L260,447.6228514900458L266.66666666666663,425.2603903326929L273.3333333333333,436.89011318043003L280,439.4376824612621L286.6666666666667,449.92677803341L293.3333333333333,417.67066597113546L300,358.03964757709247L306.66666666666663,361.53779160186616L313.33333333333337,361.94472660114764L320,364.271764595633L326.66666666666663,457.40507496699286L333.33333333333337,379.6573875802997L340,380.1416943946762L346.66666666666663,360.80234979973295L353.33333333333337,381.3333957889313L360,375.8716814159293L366.6666666666667,376.3221844209782L373.3333333333333,375.4407025321852L380,381.95872718950864L386.6666666666667,372.60615740925607L393.3333333333333,366.2491406898186L400,326.2398075123647L406.6666666666667,351.1203559163284L413.3333333333333,350.9254630326758L420,351.66688382193263L426.6666666666667,347.6154856108725L433.3333333333333,368.97394902661523L439.99999999999994,368.8959941865746L446.6666666666667,369.9184440012229L453.3333333333333,350.8291107420893L460.00000000000006,366.3892854677252L466.6666666666667,365.8301545874322L473.3333333333333,365.71404883735994L480,364.41765306508336L486.6666666666667,359.61238263641565L493.3333333333333,342.9029986457728L500,317.05351740828337L506.6666666666667,247.70852620576372L513.3333333333333,278.20664325904596L520,287.01267822255477L526.6666666666666,288.69492680970524L533.3333333333333,289.33245310861713L540,305.34766444232594L546.6666666666666,312.81834787903387L553.3333333333334,314.9066953657502L560,290.4647488448353L566.6666666666666,306.6332995438419L573.3333333333334,311.75798644724097L580,313.08788570759407L586.6666666666666,310.7656513087402L593.3333333333334,316.77362445096503L600,310.5079523313244L606.6666666666666,300.51602660608216L613.3333333333333,256.9232209356749L620.0000000000001,279.9577830559226L626.6666666666667,289.9697791418531L633.3333333333334,290.1627237770251L640,288.98709838107095L646.6666666666666,303.9783136055941L653.3333333333333,310.1725171988005L660,311.28676570319027L666.6666666666667,290.34339090114906L673.3333333333334,305.57200135727487L680,309.2801974583904L686.6666666666666,311.3181906325546L693.3333333333333,307.636530917362L700,305.78451186904493L706.6666666666667,291.262281271503L713.3333333333334,272.7931578421911L720,222.55415904250532L726.6666666666666,240.43064124396304L733.3333333333334,242.8827828160028L740,245.08729714973586L746.6666666666666,243.5125353586236L753.3333333333334,262.10083721820934L760,268.41324819697735L766.6666666666666,270.64171570404665L773.3333333333334,249.3995458584263L780,266.9177933580531L786.6666666666666,270.5730655733424L793.3333333333333,272.1673168573157L800,405.79180182836916L806.6666666666667,277.07927426322357L813.3333333333334,270.4539865532356L820,261.1890180024042L826.6666666666666,222.12101430552548L833.3333333333333,244.13803166265404L840,250.6440034238085L846.6666666666667,251.03539697434368L853.3333333333334,251.2014345915897L860,269.2285296458167L866.6666666666666,274.40981754890885L873.3333333333333,276.4017074603485L879.9999999999999,257.41661551968724L886.6666666666667,272.5165803108807L893.3333333333334,276.4388401838283L900,277.4050331355308L906.6666666666666,275.77748440519093L913.3333333333333,272.5828806311625L920.0000000000001,257.0511397394467L926.6666666666667,237.4775622477585L933.3333333333334,371.0767339125656L940,207.39305089529302L946.6666666666666,214.17411131235735L953.3333333333333,215.0660963279818L960,214.99028589509058L966.6666666666667,232.1523375391523L973.3333333333334,240.59391665602692L980,243.67172143820312L986.6666666666666,228.23850405739145L993.3333333333333,243.7943637286103L1000,245.53628599514806L1006.6666666666667,250.00039664947852L1013.3333333333334,249.6745477598839L1020,256.13986269414994L1026.6666666666665,246.9744345786564L1033.3333333333335,238.46024116704598L1040,204.5509458368971L1046.6666666666667,223.74695869249922L1053.3333333333333,229.84746397718166L1060,230.2782794612975L1066.6666666666665,229.02434951775393L1073.3333333333335,244.62244729784402L1080,251.05470085882345L1086.6666666666667,252.9260610408181L1093.3333333333333,236.90123276892137L1100,250.9626383318863L1106.6666666666667,255.27864929777405L1113.3333333333335,254.94380940445484L1120,254.69442585892182L1126.6666666666667,244.16282859338966L1133.3333333333333,223.38191219199706L1140,196.61109610189118L1146.6666666666667,138.69319320542587L1153.3333333333333,160.2552566788494L1160,166.12124513464528L1166.6666666666667,168.6047780080724L1173.3333333333333,170.03665572974788L1180,189.88267479649357L1186.6666666666667,196.52393276604775L1193.3333333333333,200.10407667472228L1200,182.1817944421474" stroke="#72b7b2" stroke-width="2"></path></g></g><path class="foreground" aria-hidden="true" d="" display="none"></path></g><g transform="translate(0,0)"><path class="background" aria-hidden="true" d="M0,0h1200v600h-1200Z"></path><g><g class="mark-line role-mark marks" role="graphics-object" aria-roledescription="line mark container"><path aria-label="Library: BLIS; Size: 24; GFLOPS: 3.8953189391" role="graphics-symbol" aria-roledescription="line mark" d="M26.666666666666668,553.2561727307949L33.33333333333333,553.8480472595996L40,547.2676056338029L46.666666666666664,545.3882080924856L53.333333333333336,534.6017874875869L60,533.1044571428571L66.66666666666666,530.8578745198463L73.33333333333333,525.7313804923652L80,511.0773405698779L86.66666666666666,507.23940632394067L93.33333333333333,495.352118926115L100,496.5829145728643L106.66666666666667,475.1818080481552L113.33333333333333,482.28217294470807L120,463.36086324963685L126.66666666666667,468.1433731592109L133.33333333333331,441.9102511321532L140,452.12730198462367L146.66666666666666,445.6901848476959L153.33333333333331,448.5701134830569L160,424.9344065764686L166.66666666666669,423.6716923325002L173.33333333333331,408.62914721061685L180,407.82415548357244L186.66666666666666,416.7869124042245L193.33333333333334,395.4078689950004L200,374.6901990236575L206.66666666666666,392.66532074242923L213.33333333333334,351.9594266813671L219.99999999999997,373.29814098090225L226.66666666666666,357.93389700230586L233.33333333333334,374.25373134328356L240,320.41233830845766L246.66666666666666,355.3189099917424L253.33333333333334,312.1180376244928L260,342.08068651561933L266.66666666666663,281.49422462521505L273.3333333333333,333.6555028602161L280,294.2879743452699L286.6666666666667,308.2582401555663L293.3333333333333,391.1133835784721L300,408.9399078180711L306.66666666666663,291.45892769306437L313.33333333333337,415.6430505184655L320,250.87356002775846L326.66666666666663,296.91246684350125L333.33333333333337,254.5095899609686L340,273.2525390847883L346.66666666666663,200.3055505978939L353.33333333333337,304.99216380181997L360,247.66960113031195L366.6666666666667,278.7040269095294L373.3333333333333,213.591637630662L380,265.02210400807115L386.6666666666667,228.66394965928723L393.3333333333333,274.31091049212813L400,188.4520061625026L406.6666666666667,244.32281093139977L413.3333333333333,213.89922096110644L420,237.93762862118092L426.6666666666667,164.76161919040467L433.3333333333333,276.0944092827004L439.99999999999994,211.57873845449222L446.6666666666667,232.06984215672577L453.3333333333333,156.42959427207637L460.00000000000006,215.78581160868384L466.6666666666667,202.28228501284357L473.3333333333333,232.09780508147028L480,159.6278806729818L486.6666666666667,398.39624040520073L493.3333333333333,363.47869008068346L500,198.89670766651724L506.6666666666667,171.44400266413697L513.3333333333333,197.3871519161841L520,175.96801261474351L526.6666666666666,207.3849577664256L533.3333333333333,135.31598513011147L540,203.15164743455998L546.6666666666666,217.27813425098051L553.3333333333334,206.85613204011563L560,112.85257497563961L566.6666666666666,190.82474226804115L573.3333333333334,371.69022364217255L580,392.15863253663605L586.6666666666666,111.09998544607768L593.3333333333334,195.26127721637673L600,361.9494746255309L606.6666666666666,180.947259565667L613.3333333333333,121.61128215314325L620.0000000000001,166.84393410634536L626.6666666666667,226.36807263098166L633.3333333333334,211.07914588927247L640,115.50046559751675L646.6666666666666,196.75724896143677L653.3333333333333,194.61337281026397L660,197.03668573022733L666.6666666666667,331.9770184769894L673.3333333333334,191.4728417006966L680,176.59381315094046L686.6666666666666,214.4046691935108L693.3333333333333,106.05595854922274L700,178.5077149947846L706.6666666666667,151.68205291025046L713.3333333333334,178.78924550610893L720,167.9575611389134L726.6666666666666,180.8169103468476L733.3333333333334,129.28153120982714L740,187.72372372372368L746.6666666666666,84.1819965798547L753.3333333333334,196.14848510857433L760,143.11950820061227L766.6666666666666,188.33371677158942L773.3333333333334,79.58774546144166L780,174.04422970734413L786.6666666666666,178.66862612808194L793.3333333333333,210.47642185035428L800,100.49680301570802L806.6666666666667,204.41404127712116L813.3333333333334,162.19395777321895L820,203.8956981115037L826.6666666666666,113.6701864871466L833.3333333333333,193.56408419017765L840,216.53918739924632L846.6666666666667,200.3032883147387L853.3333333333334,114.18361650712771L860,185.89816292679876L866.6666666666666,183.11030592498037L873.3333333333333,225.62716226134708L879.9999999999999,102.67949845109908L886.6666666666667,212.4550926280765L893.3333333333334,189.031042679582L900,211.67162000104278L906.6666666666666,111.67311237833894L913.3333333333333,208.07075851883107L920.0000000000001,162.86428327345604L926.6666666666667,213.45988244203238L933.3333333333334,149.81384208863227L940,191.49059674281452L946.6666666666666,189.25907230065087L953.3333333333333,221.96691689944134L960,121.90287456249294L966.6666666666667,211.30840144356435L973.3333333333334,166.80068186122855L980,201.94325028844926L986.6666666666666,87.85022434844434L993.3333333333333,215.57876852113023L1000,216.84165374979287L1006.6666666666667,260.84456314383823L1013.3333333333334,129.42836004932187L1020,214.34549793773806L1026.6666666666665,175.57864206731247L1033.3333333333335,214.41958343825306L1040,136.22299414441878L1046.6666666666667,210.376661055405L1053.3333333333333,184.6570170458903L1060,217.9486464957104L1066.6666666666665,108.75321138268446L1073.3333333333335,216.30354109710922L1080,182.2921877706564L1086.6666666666667,224.83053519229884L1093.3333333333333,105.01383568673546L1100,222.0818463298474L1106.6666666666667,208.17725276481724L1113.3333333333335,230.65262147163895L1120,128.21549084518912L1126.6666666666667,222.64967512051982L1133.3333333333333,182.39533627099544L1140,215.3915589358859L1146.6666666666667,157.55365012554304L1153.3333333333333,228.62204926095646L1160,197.93310709885253L1166.6666666666667,244.55163735506486L1173.3333333333333,134.3443157748265L1180,249.03924302674534L1186.6666666666667,204.48761432441393L1193.3333333333333,235.10395814201158L1200,109.42065645648404" stroke="#4c78a8" stroke-width="2"></path></g></g><path class="foreground" aria-hidden="true" d="" display="none"></path></g><g transform="translate(0,0)"><path class="background" aria-hidden="true" d="M0,0h1200v600h-1200Z"></path><g><g class="mark-line role-mark marks" role="graphics-object" aria-roledescription="line mark container"><path aria-label="Library: StrideArrays; Size: 24; GFLOPS: 21.6371889185" role="graphics-symbol" aria-roledescription="line mark" d="M26.666666666666668,340.3537329785568L33.33333333333333,410.52950687146324L40,404.1065015479876L46.666666666666664,388.8698415851418L53.333333333333336,360.46314725940897L60,375.1974054792182L66.66666666666666,350.38520801232664L73.33333333333333,370.88435810134183L80,348.95431147998875L86.66666666666666,396.1640838650866L93.33333333333333,377.5919700899323L100,371.0280373831775L106.66666666666667,344.65050820953866L113.33333333333333,387.7235237624051L120,374.06016241564686L126.66666666666667,227.74152639320147L133.33333333333331,181.87015108207427L140,225.05333376509824L146.66666666666666,215.2105604847435L153.33333333333331,212.9476673427992L160,161.86167835165168L166.66666666666669,197.01492537313436L173.33333333333331,162.3572610609798L180,162.08224956063256L186.66666666666666,104.93509077343937L193.33333333333334,219.55387880216927L200,196.92318027610762L206.66666666666666,200.33175712432515L213.33333333333334,155.69704749679065L219.99999999999997,195.30547060822283L226.66666666666666,158.11638149432906L233.33333333333334,168.5109141992652L240,339.33470767708417L246.66666666666666,173.0420749279539L253.33333333333334,165.4521158129175L260,187.17788944723614L266.66666666666663,102.49520153550861L273.3333333333333,203.98778714742653L280,179.29744042365402L286.6666666666667,171.47043701799475L293.3333333333333,106.70722910459465L300,374.9667110519307L306.66666666666663,171.3812896011926L313.33333333333337,186.46164422801485L320,95.86692497828844L326.66666666666663,362.1654298642534L333.33333333333337,143.7312936481543L340,154.143880411087L346.66666666666663,60.23427331887186L353.33333333333337,204.47328955729708L360,178.531917659805L366.6666666666667,188.28074170461932L373.3333333333333,101.9418522195433L380,185.72323049001815L386.6666666666667,147.36316667991412L393.3333333333333,150.98334155504116L400,61.80798878766651L406.6666666666667,171.1014863138071L413.3333333333333,150.19436418641016L420,172.5755933470379L426.6666666666667,68.10888423571633L433.3333333333333,205.254700305319L439.99999999999994,174.44959857270297L446.6666666666667,162.52914798206274L453.3333333333333,76.4452127148756L460.00000000000006,170.88221568428528L466.6666666666667,153.95793499043975L473.3333333333333,162.47087284691304L480,67.7912003417342L486.6666666666667,160.50068299790547L493.3333333333333,132.03239664765118L500,135.2246290063921L506.6666666666667,43.882876748205945L513.3333333333333,178.06849790037356L520,157.5112538933182L526.6666666666666,175.3537445978227L533.3333333333333,77.67041002872814L540,164.653884751492L546.6666666666666,136.5650963480539L553.3333333333334,155.1238676844783L560,45.94803595616297L566.6666666666666,153.95186796602823L573.3333333333334,135.28127591084228L580,154.4960678839305L586.6666666666666,50.94638965567335L593.3333333333334,173.70563304941777L600,146.37242789588035L606.6666666666666,148.5435114503817L613.3333333333333,60.62846722334192L620.0000000000001,160.18735791305232L626.6666666666667,147.40710003436732L633.3333333333334,159.1932854296238L640,57.51992585727517L646.6666666666666,151.25892200469303L653.3333333333333,124.7460830159572L660,127.10565455310787L666.6666666666667,74.81194438112607L673.3333333333334,173.10068677456925L680,151.2777669093192L686.6666666666666,163.5652148420323L693.3333333333333,64.76973822724412L700,127.06929254610753L706.6666666666667,120.09212499250272L713.3333333333334,127.82288985362484L720,109.12714682791231L726.6666666666666,143.06321839080448L733.3333333333334,114.11273601857732L740,112.8642265118546L746.6666666666666,94.09557327467685L753.3333333333334,112.53733456501274L760,107.56816863935595L766.6666666666666,115.96006295494787L773.3333333333334,94.7107919449605L780,93.32113827813274L786.6666666666666,87.56375217327717L793.3333333333333,99.21639680517123L800,76.25674998608241L806.6666666666667,107.33170763856839L813.3333333333334,96.5721234853701L820,94.50089674793823L826.6666666666666,70.96886211631303L833.3333333333333,125.02223405153092L840,110.77941234263848L846.6666666666667,117.19377085932501L853.3333333333334,102.58919803600655L860,116.49364791288565L866.6666666666666,93.43022783131845L873.3333333333333,102.4966795311004L879.9999999999999,93.48923076923082L886.6666666666667,103.7677417865039L893.3333333333334,98.90045962818135L900,85.03915230505952L906.6666666666666,63.95340463835639L913.3333333333333,104.25180946687438L920.0000000000001,99.06872337610788L926.6666666666667,93.85741042900682L933.3333333333334,68.44313708526188L940,111.07493593029211L946.6666666666666,99.71968876097638L953.3333333333333,108.61882924707595L960,100.74440320504054L966.6666666666667,111.93553498268405L973.3333333333334,94.06842648576898L980,91.05949524429613L986.6666666666666,80.22669224445042L993.3333333333333,111.40506548008177L1000,89.79256272013714L1006.6666666666667,80.49755844155851L1013.3333333333334,63.56689229850172L1020,99.11036765031899L1026.6666666666665,90.06168502482481L1033.3333333333335,97.63120174037331L1040,78.17618977351133L1046.6666666666667,112.05657969994274L1053.3333333333333,108.09145191360689L1060,103.29587944703258L1066.6666666666665,89.62051902874457L1073.3333333333335,105.13151516626739L1080,96.04798294682726L1086.6666666666667,99.69152272557184L1093.3333333333333,85.73872126140255L1100,84.15907123580631L1106.6666666666667,81.86610213277052L1113.3333333333335,95.12021309450276L1120,68.43864309832756L1126.6666666666667,117.05357909294672L1133.3333333333333,112.48867223824719L1140,111.25667741209553L1146.6666666666667,97.49943203332063L1153.3333333333333,115.34038769989627L1160,109.1217802727891L1166.6666666666667,112.4719535147485L1173.3333333333333,96.02623770107768L1180,100.88010336620195L1186.6666666666667,95.28627121628763L1193.3333333333333,109.40195788523495L1200,95.17524255252022" stroke="#54a24b" stroke-width="2"></path></g></g><path class="foreground" aria-hidden="true" d="" display="none"></path></g><g transform="translate(0,0)"><path class="background" aria-hidden="true" d="M0,0h1200v600h-1200Z"></path><g><g class="mark-line role-mark marks" role="graphics-object" aria-roledescription="line mark container"><path aria-label="Library: Tullio; Size: 24; GFLOPS: 22.4051863857" role="graphics-symbol" aria-roledescription="line mark" d="M26.666666666666668,331.1377633711507L33.33333333333333,406.0712623467963L40,400.1255133199958L46.666666666666664,380.8151776047842L53.333333333333336,353.3226511289148L60,365.95921631347454L66.66666666666666,338.44014889895493L73.33333333333333,361.54835840806345L80,336.61712499534843L86.66666666666666,387.4822767432856L93.33333333333333,362.56590000943896L100,362.07306599722534L106.66666666666667,342.62984731571163L113.33333333333333,377.27466487526334L120,363.3836018446428L126.66666666666667,352.93758315497195L133.33333333333331,328.92523089593504L140,370.31915853785534L146.66666666666666,363.6903448734135L153.33333333333331,373.8690894726447L160,347.29097651421506L166.66666666666669,366.69511414550885L173.33333333333331,353.7356103731815L180,342.82671070285886L186.66666666666666,314.3555746879035L193.33333333333334,382.11466934177025L200,363.4815515610217L206.66666666666666,365.9616261118871L213.33333333333334,333.73899321445475L219.99999999999997,366.1311690011781L226.66666666666666,346.68972451236675L233.33333333333334,364.9240551042034L240,322.93031816986587L246.66666666666666,371.61338060736864L253.33333333333334,368.36723387415907L260,378.33808517335973L266.66666666666663,327.7167918483113L273.3333333333333,381.18798200514135L280,367.48487804878056L286.6666666666667,361.3675839032925L293.3333333333333,343.34206339493335L300,395.30420199385077L306.66666666666663,387.65605958023013L313.33333333333337,385.2779248594461L320,370.5643489100362L326.66666666666663,372.2904343807762L333.33333333333337,363.38708286625854L340,361.29320550229266L346.66666666666663,356.5046073554595L353.33333333333337,355.2582573136206L360,359.0342913776016L366.6666666666667,365.184721352536L373.3333333333333,335.35734740015073L380,365.87050728663615L386.6666666666667,348.64830508474574L393.3333333333333,361.90796595504946L400,300.9200214184881L406.6666666666667,282.76913893448733L413.3333333333333,264.80490399716297L420,277.91940291501396L426.6666666666667,257.5120142533827L433.3333333333333,299.816700610998L439.99999999999994,289.9871245506793L446.6666666666667,264.42144601337725L453.3333333333333,256.02490115251953L460.00000000000006,302.0103561238508L466.6666666666667,274.78949422851724L473.3333333333333,266.71512024325074L480,241.3779551734725L486.6666666666667,240.3031917866924L493.3333333333333,229.72702281001554L500,233.11699889455474L506.6666666666667,114.7256604808482L513.3333333333333,206.8465376745521L520,200.66810451507973L526.6666666666666,208.9212373627112L533.3333333333333,147.46865277646842L540,217.8999289180084L546.6666666666666,204.53717994503359L553.3333333333334,226.5032471231628L560,124.32849969165707L566.6666666666666,186.64861487190169L573.3333333333334,172.62747443334737L580,189.8751255440241L586.6666666666666,121.77212546860916L593.3333333333334,221.29041062507616L600,211.8637683624743L606.6666666666666,214.18125396713452L613.3333333333333,92.32467591128766L620.0000000000001,192.5794086850124L626.6666666666667,182.1978027142942L633.3333333333334,187.28884466656112L640,119.8104955520803L646.6666666666666,208.62686962276638L653.3333333333333,197.3166402859331L660,197.28144821611716L666.6666666666667,96.5279463895498L673.3333333333334,169.75709862176436L680,164.4578053168099L686.6666666666666,179.03301882346287L693.3333333333333,130.44118582672317L700,223.7659523236214L706.6666666666667,216.98187388307372L713.3333333333334,221.47593088792382L720,131.92054162636708L726.6666666666666,213.8585561817963L733.3333333333334,197.41320730226835L740,207.13163528332385L746.6666666666666,146.74479406161726L753.3333333333334,217.89490353186386L760,203.58003707008982L766.6666666666666,211.5912858157708L773.3333333333334,128.7385816322547L780,195.0013978487568L786.6666666666666,181.82239607505127L793.3333333333333,195.5291548482642L800,151.22150669528773L806.6666666666667,222.48088480379778L813.3333333333334,213.62395209580848L820,218.84270553859858L826.6666666666666,137.19128160418472L833.3333333333333,206.55076547485254L840,203.77879040258026L846.6666666666667,210.5969414336646L853.3333333333334,143.36938110749188L860,224.79843096481486L866.6666666666666,208.18458859381798L873.3333333333333,226.7112518578418L879.9999999999999,119.47895096921326L886.6666666666667,203.35263092321108L893.3333333333334,190.80566915018773L900,211.16138631953564L906.6666666666666,126.24745741561112L913.3333333333333,217.9691421755136L920.0000000000001,200.9800708143652L926.6666666666667,215.76915632131724L933.3333333333334,96.29538537215241L940,196.04125141665622L946.6666666666666,181.2419838712986L953.3333333333333,204.72961810811006L960,140.40299038803846L966.6666666666667,210.7709414916277L973.3333333333334,193.38687526389475L980,201.89363088857002L986.6666666666666,117.53437062788812L993.3333333333333,192.44936198956523L1000,184.12866363347794L1006.6666666666667,223.74960338611066L1013.3333333333334,152.78022199354743L1020,224.9922050173976L1026.6666666666665,208.51333467510952L1033.3333333333335,214.6610065399029L1040,127.48872734363992L1046.6666666666667,198.07686592857004L1053.3333333333333,187.2622353952833L1060,200.26793591422708L1066.6666666666665,126.98012524374538L1073.3333333333335,225.82679798707477L1080,208.76742198907573L1086.6666666666667,220.24593029410318L1093.3333333333333,104.4363110844468L1100,206.59391868276964L1106.6666666666667,193.81037747759115L1113.3333333333335,208.38894392362454L1120,102.16921088613762L1126.6666666666667,210.95728297537732L1133.3333333333333,194.69161639788248L1140,204.22472931236467L1146.6666666666667,73.35510153464577L1153.3333333333333,192.50617485138554L1160,179.6464229941636L1166.6666666666667,194.9317818658581L1173.3333333333333,120.52115493809794L1180,201.3319746662176L1186.6666666666667,181.01424301512012L1193.3333333333333,199.01632476530503L1200,94.79533948700676" stroke="#eeca3b" stroke-width="2"></path></g></g><path class="foreground" aria-hidden="true" d="" display="none"></path></g><g transform="translate(0,0)"><path class="background" aria-hidden="true" d="M0,0h1200v600h-1200Z"></path><g><g class="mark-line role-mark marks" role="graphics-object" aria-roledescription="line mark container"><path aria-label="Library: Gaius; Size: 24; GFLOPS: 19.8863554628" role="graphics-symbol" aria-roledescription="line mark" d="M26.666666666666668,361.363734445803L33.33333333333333,419.0348525469169L40,410.22664333916515L46.666666666666664,394.8500289519398L53.333333333333336,369.3983075576305L60,382.5915562708926L66.66666666666666,357.05061445532175L73.33333333333333,375.24177767299307L80,364.2236546244941L86.66666666666666,398.8466715532751L93.33333333333333,385.4334178202379L100,379.2386906951085L106.66666666666667,372.97665527428603L113.33333333333333,384.2449196911882L120,369.27033814168084L126.66666666666667,374.91604743083L133.33333333333331,475.8787878787879L140,484.5383219321513L146.66666666666666,481.95498904600674L153.33333333333331,472.2094829895526L160,468.85521842324715L166.66666666666669,472.4409448818897L173.33333333333331,449.32507739938075L180,409.87700289943535L186.66666666666666,421.96082640193185L193.33333333333334,445.0627743634767L200,409.4875214326538L206.66666666666666,408.71092951991824L213.33333333333334,399.3941267387944L219.99999999999997,415.8032786885246L226.66666666666666,370.0696033098077L233.33333333333334,367.09052729818006L240,340.91566265060237L246.66666666666666,341.5460836192359L253.33333333333334,311.19476995189336L260,308.6650511259531L266.66666666666663,266.04393480641625L273.3333333333333,289.33310521813513L280,276.2031135012738L286.6666666666667,267.6011964107676L293.3333333333333,234.36647875864475L300,293.47037484885124L306.66666666666663,285.26643251379824L313.33333333333337,284.5970462291357L320,255.68426335721128L326.66666666666663,299.1101782238674L333.33333333333337,289.8149892610875L340,287.28879828169937L346.66666666666663,384.3224346318678L353.33333333333337,408.9190151654694L360,411.4433285509326L366.6666666666667,398.80375168905493L373.3333333333333,384.43704219012153L380,382.9779547210173L386.6666666666667,384.7552019352522L393.3333333333333,369.3744445310672L400,338.19111537232345L406.6666666666667,376.2471448871112L413.3333333333333,361.88807715838345L420,376.6711474929613L426.6666666666667,335.29660023446655L433.3333333333333,376.11532210289676L439.99999999999994,354.4777804583836L446.6666666666667,347.7161100823702L453.3333333333333,318.463016198165L460.00000000000006,347.88770675011176L466.6666666666667,336.56156834402384L473.3333333333333,335.3143760336021L480,302.64424254960295L486.6666666666667,330.0135940253419L493.3333333333333,319.80748903632065L500,314.73528066211026L506.6666666666667,304.6572918839975L513.3333333333333,346.43276532691243L520,329.95316030461345L526.6666666666666,334.13430756935725L533.3333333333333,294.7923952438481L540,329.91945824913984L546.6666666666666,324.42418930762483L553.3333333333334,324.30830687719435L560,261.96614244215164L566.6666666666666,314.5308454235338L573.3333333333334,305.9461772693606L580,305.34438420140106L586.6666666666666,261.2501204495288L593.3333333333334,299.11036245353154L600,243.66905752562826L606.6666666666666,289.277758318739L613.3333333333333,210.49508473205714L620.0000000000001,264.6700106516898L626.6666666666667,245.05768789243038L633.3333333333334,254.32695039490878L640,175.64167742812472L646.6666666666666,238.27495412412367L653.3333333333333,233.7627194204514L660,213.8240983872662L666.6666666666667,149.33005878965037L673.3333333333334,203.61481591974868L680,202.31825233150218L686.6666666666666,201.8293763651763L693.3333333333333,135.1776035106253L700,170.17101462564753L706.6666666666667,159.0729046123326L713.3333333333334,150.22605258824177L720,70.7836729543877L726.6666666666666,195.42870604494834L733.3333333333334,178.39523447807133L740,195.4093659780286L746.6666666666666,124.11173184357534L753.3333333333334,214.03179984961375L760,200.5499533082004L766.6666666666666,198.05456476161953L773.3333333333334,197.285411246748L780,282.74647981451875L786.6666666666666,278.06386280114333L793.3333333333333,281.81440489707256L800,229.68960863697697L806.6666666666667,278.2591246461091L813.3333333333334,252.4098917051507L820,287.35926015021516L826.6666666666666,201.1863855931259L833.3333333333333,271.33237803042886L840,267.6873136918162L846.6666666666667,285.66912953128605L853.3333333333334,229.06789988081053L860,269.96829831015776L866.6666666666666,267.27324260709895L873.3333333333333,270.6255620396059L879.9999999999999,203.0528472323611L886.6666666666667,269.05048684985616L893.3333333333334,278.9571255905945L900,262.16589112709653L906.6666666666666,217.00560321817233L913.3333333333333,272.4951356002129L920.0000000000001,250.2894887528584L926.6666666666667,257.43683487264707L933.3333333333334,189.79152409407288L940,267.4742734208482L946.6666666666666,252.0286870850142L953.3333333333333,244.8169441482818L960,199.6435381456087L966.6666666666667,252.83292276481663L973.3333333333334,227.48389417285642L980,235.48070752132745L986.6666666666666,155.0896551724137L993.3333333333333,239.03949447077403L1000,241.11835497361164L1006.6666666666667,268.4604116995383L1013.3333333333334,177.84623468206095L1020,245.7248196054841L1026.6666666666665,219.64755466909736L1033.3333333333335,229.70480023491604L1040,140.13178594273904L1046.6666666666667,240.842123443863L1053.3333333333333,226.70529215952868L1060,235.76669700882744L1066.6666666666665,166.71619613670134L1073.3333333333335,234.8915838218505L1080,218.5758257981177L1086.6666666666667,223.7422028487229L1093.3333333333333,142.0183917904732L1100,229.68351330209168L1106.6666666666667,219.711837361858L1113.3333333333335,222.82804813277605L1120,157.25676654885876L1126.6666666666667,206.3792090680958L1133.3333333333333,189.69808602541826L1140,194.62804340026963L1146.6666666666667,111.85015489128867L1153.3333333333333,212.22503607211726L1160,199.01324698802065L1166.6666666666667,217.35931331653316L1173.3333333333333,151.06733908031708L1180,226.37150885766647L1186.6666666666667,205.81571046200398L1193.3333333333333,214.12723937920663L1200,146.2869971052165" stroke="#f58518" stroke-width="2"></path></g></g><path class="foreground" aria-hidden="true" d="" display="none"></path></g></g><g class="mark-group role-legend" role="graphics-symbol" aria-roledescription="legend" aria-label="Symbol legend titled 'Library' for stroke color with 6 values: BLIS, Gaius, MKL, OpenBLAS, StrideArrays, Tullio"><g transform="translate(1220,0)"><path class="background" aria-hidden="true" d="M0,0h77v92h-77Z" pointer-events="none"></path><g><g class="mark-group role-legend-entry"><g transform="translate(0,16)"><path class="background" aria-hidden="true" d="M0,0h0v0h0Z" pointer-events="none"></path><g><g class="mark-group role-scope" role="graphics-object" aria-roledescription="group mark container"><g transform="translate(0,0)"><path class="background" aria-hidden="true" d="M0,0h77v11h-77Z" pointer-events="none" opacity="1"></path><g><g class="mark-symbol role-legend-symbol" pointer-events="none"><path transform="translate(6,6)" d="M-5,0L5,0" stroke="#4c78a8" stroke-width="1.5" opacity="1"></path></g><g class="mark-text role-legend-label" pointer-events="none"><text text-anchor="start" transform="translate(16,9)" font-family="sans-serif" font-size="10px" fill="#000" opacity="1">BLIS</text></g></g><path class="foreground" aria-hidden="true" d="" pointer-events="none" display="none"></path></g><g transform="translate(0,13)"><path class="background" aria-hidden="true" d="M0,0h77v11h-77Z" pointer-events="none" opacity="1"></path><g><g class="mark-symbol role-legend-symbol" pointer-events="none"><path transform="translate(6,6)" d="M-5,0L5,0" stroke="#f58518" stroke-width="1.5" opacity="1"></path></g><g class="mark-text role-legend-label" pointer-events="none"><text text-anchor="start" transform="translate(16,9)" font-family="sans-serif" font-size="10px" fill="#000" opacity="1">Gaius</text></g></g><path class="foreground" aria-hidden="true" d="" pointer-events="none" display="none"></path></g><g transform="translate(0,26)"><path class="background" aria-hidden="true" d="M0,0h77v11h-77Z" pointer-events="none" opacity="1"></path><g><g class="mark-symbol role-legend-symbol" pointer-events="none"><path transform="translate(6,6)" d="M-5,0L5,0" stroke="#e45756" stroke-width="1.5" opacity="1"></path></g><g class="mark-text role-legend-label" pointer-events="none"><text text-anchor="start" transform="translate(16,9)" font-family="sans-serif" font-size="10px" fill="#000" opacity="1">MKL</text></g></g><path class="foreground" aria-hidden="true" d="" pointer-events="none" display="none"></path></g><g transform="translate(0,39)"><path class="background" aria-hidden="true" d="M0,0h77v11h-77Z" pointer-events="none" opacity="1"></path><g><g class="mark-symbol role-legend-symbol" pointer-events="none"><path transform="translate(6,6)" d="M-5,0L5,0" stroke="#72b7b2" stroke-width="1.5" opacity="1"></path></g><g class="mark-text role-legend-label" pointer-events="none"><text text-anchor="start" transform="translate(16,9)" font-family="sans-serif" font-size="10px" fill="#000" opacity="1">OpenBLAS</text></g></g><path class="foreground" aria-hidden="true" d="" pointer-events="none" display="none"></path></g><g transform="translate(0,52)"><path class="background" aria-hidden="true" d="M0,0h77v11h-77Z" pointer-events="none" opacity="1"></path><g><g class="mark-symbol role-legend-symbol" pointer-events="none"><path transform="translate(6,6)" d="M-5,0L5,0" stroke="#54a24b" stroke-width="1.5" opacity="1"></path></g><g class="mark-text role-legend-label" pointer-events="none"><text text-anchor="start" transform="translate(16,9)" font-family="sans-serif" font-size="10px" fill="#000" opacity="1">StrideArrays</text></g></g><path class="foreground" aria-hidden="true" d="" pointer-events="none" display="none"></path></g><g transform="translate(0,65)"><path class="background" aria-hidden="true" d="M0,0h77v11h-77Z" pointer-events="none" opacity="1"></path><g><g class="mark-symbol role-legend-symbol" pointer-events="none"><path transform="translate(6,6)" d="M-5,0L5,0" stroke="#eeca3b" stroke-width="1.5" opacity="1"></path></g><g class="mark-text role-legend-label" pointer-events="none"><text text-anchor="start" transform="translate(16,9)" font-family="sans-serif" font-size="10px" fill="#000" opacity="1">Tullio</text></g></g><path class="foreground" aria-hidden="true" d="" pointer-events="none" display="none"></path></g></g></g><path class="foreground" aria-hidden="true" d="" pointer-events="none" display="none"></path></g></g><g class="mark-text role-legend-title" pointer-events="none"><text text-anchor="start" transform="translate(0,9)" font-family="sans-serif" font-size="11px" font-weight="bold" fill="#000" opacity="1">Library</text></g></g><path class="foreground" aria-hidden="true" d="" pointer-events="none" display="none"></path></g></g></g><path class="foreground" aria-hidden="true" d="" display="none"></path></g></g></g></svg>
